<?xml version="1.0" standalone="no"?>
<!DOCTYPE svg PUBLIC "-//W3C//DTD SVG 20010904//EN"
 "http://www.w3.org/TR/2001/REC-SVG-20010904/DTD/svg10.dtd">
<svg version="1.0" xmlns="http://www.w3.org/2000/svg"
 width="512.000000pt" height="512.000000pt" viewBox="0 0 512.000000 512.000000"
 preserveAspectRatio="xMidYMid meet">
<metadata>
Created by potrace 1.15, written by Peter Selinger 2001-2017
</metadata>
<g transform="translate(0.000000,512.000000) scale(0.100000,-0.100000)"
fill="#000000" stroke="none">
<path d="M2427 4966 c-92 -34 -166 -109 -188 -190 -6 -23 -9 -69 -5 -106 l6
-65 -30 62 c-38 77 -96 128 -169 150 -146 42 -313 -34 -383 -175 -18 -37 -23
-63 -23 -122 1 -85 10 -107 82 -196 l48 -59 -50 44 c-28 24 -72 54 -100 67
-135 64 -303 -6 -381 -157 -24 -46 -28 -66 -29 -139 0 -72 4 -93 25 -134 31
-59 78 -99 156 -131 l59 -25 -77 7 c-101 8 -156 -8 -216 -62 -71 -64 -96 -121
-100 -228 -4 -83 -2 -93 27 -152 69 -140 179 -185 361 -149 14 2 -4 -6 -39
-20 -78 -30 -127 -69 -166 -131 -27 -44 -30 -56 -30 -134 0 -74 4 -94 28 -142
31 -63 93 -126 159 -160 32 -18 60 -23 113 -24 80 0 126 19 210 89 l50 41 -44
-50 c-68 -77 -95 -144 -89 -219 18 -215 261 -356 452 -262 62 31 107 82 138
159 l17 42 -5 -65 c-11 -115 28 -203 113 -259 l44 -29 2 -181 2 -180 -35 33
c-160 153 -438 287 -667 321 -322 49 -537 -31 -537 -199 0 -87 48 -173 157
-281 192 -191 404 -296 691 -342 115 -18 288 -14 351 9 l40 14 -3 -263 -3
-263 146 0 145 0 0 124 0 123 63 7 c98 11 345 63 459 97 118 35 247 93 314
141 46 33 86 90 98 138 4 19 25 35 88 67 149 77 243 170 269 267 14 52 8 98
-22 161 -21 44 -33 55 -94 87 -39 20 -87 40 -107 43 -21 4 -40 10 -43 15 -8
13 86 77 167 114 185 85 438 107 653 56 44 -10 87 -21 96 -25 12 -4 19 4 28
36 7 22 11 43 8 45 -12 13 -178 47 -274 56 -275 28 -568 -54 -727 -202 l-64
-60 -158 -4 c-172 -5 -285 -22 -397 -63 -97 -35 -219 -96 -294 -149 l-63 -43
0 147 0 147 47 35 c26 19 61 55 78 78 29 42 30 48 30 147 l0 103 18 -49 c23
-61 95 -142 144 -162 101 -40 216 -25 310 39 87 60 133 145 133 246 0 70 -19
121 -69 182 -40 50 -39 55 4 17 64 -56 113 -75 190 -76 62 0 78 4 135 36 119
65 176 170 168 308 -7 116 -51 180 -159 231 l-56 26 86 0 c101 -1 144 17 205
84 60 67 76 111 76 216 0 82 -3 97 -31 153 -35 70 -97 124 -163 142 -23 6 -74
9 -116 6 l-75 -5 55 21 c75 29 152 106 169 170 21 74 10 182 -24 246 -52 95
-145 159 -244 168 -79 7 -131 -10 -208 -69 l-68 -52 42 48 c68 77 86 124 81
209 -5 87 -26 136 -88 197 -112 112 -283 131 -402 45 -35 -26 -55 -52 -81
-104 l-34 -71 5 80 c6 100 -11 150 -71 207 -68 67 -118 88 -217 91 -54 1 -99
-3 -123 -12z m243 -72 c62 -34 94 -73 111 -134 14 -52 5 -109 -60 -412 -23
-102 -41 -192 -41 -200 0 -10 -30 -13 -140 -13 -133 0 -141 1 -145 20 -3 11
-16 74 -30 140 -14 66 -37 172 -50 235 -28 130 -31 215 -11 263 17 42 86 102
140 121 64 24 161 15 226 -20z m-617 -138 c80 -34 104 -82 217 -431 34 -104
63 -195 66 -201 2 -6 -14 -17 -37 -24 -24 -8 -78 -38 -122 -67 l-79 -54 -42
48 c-22 26 -99 110 -169 188 -150 163 -183 208 -195 263 -24 106 45 227 158
276 44 19 161 20 203 2z m1177 -7 c89 -40 160 -139 160 -224 -1 -78 -28 -119
-228 -340 -70 -76 -141 -155 -158 -173 l-30 -35 -50 38 c-27 21 -78 52 -114
68 -36 17 -67 31 -68 33 -2 1 35 122 83 267 92 284 115 331 182 366 53 28 162
28 223 0z m-1645 -418 c50 -23 84 -50 259 -209 77 -70 156 -141 174 -158 l34
-30 -44 -65 c-24 -36 -55 -90 -67 -120 l-23 -54 -261 86 c-279 91 -310 104
-343 141 -62 67 -74 184 -28 276 60 120 196 181 299 133z m2059 -2 c167 -62
232 -298 113 -410 -38 -36 -108 -66 -288 -123 -96 -30 -201 -64 -233 -75 -33
-12 -64 -21 -70 -21 -7 0 -24 28 -39 63 -15 34 -45 86 -68 116 l-41 54 53 46
c29 25 109 97 178 159 236 215 277 236 395 191z m-945 -256 c132 -34 258 -126
339 -246 71 -107 97 -196 97 -332 0 -168 -48 -285 -166 -409 -321 -339 -883
-195 -1015 259 -26 93 -23 230 10 331 57 178 198 324 372 384 116 41 240 45
363 13z m-1109 -374 c102 -22 212 -45 245 -51 l60 -11 0 -139 c0 -131 -1 -139
-20 -143 -11 -3 -85 -19 -165 -35 -80 -17 -185 -40 -235 -50 -169 -37 -244
-24 -310 53 -72 84 -84 206 -29 307 46 84 120 124 214 115 30 -3 138 -24 240
-46z m2221 40 c92 -28 159 -127 159 -235 0 -154 -86 -254 -219 -254 -49 0
-331 53 -559 105 -17 4 -22 11 -18 22 9 22 9 204 0 237 -5 22 -3 26 16 26 12
0 106 18 209 41 322 71 353 75 412 58z m-1867 -501 c14 -35 44 -87 66 -116 22
-29 40 -56 40 -60 0 -4 -24 -27 -52 -52 -29 -25 -105 -92 -168 -150 -206 -188
-239 -210 -322 -210 -92 1 -181 58 -223 146 -23 47 -31 159 -16 207 19 58 84
108 186 144 70 25 426 143 456 151 3 1 18 -26 33 -60z m1291 34 c33 -12 147
-49 253 -82 281 -90 327 -129 327 -275 -1 -150 -111 -265 -254 -265 -52 0 -66
5 -114 38 -31 20 -122 98 -204 172 -82 74 -165 149 -185 167 l-37 31 53 80
c28 44 58 98 66 121 7 23 18 40 24 38 6 -2 38 -14 71 -25z m-57 -482 c73 -80
148 -167 167 -195 85 -123 40 -269 -105 -343 -58 -30 -72 -33 -130 -30 -89 5
-137 31 -177 97 -25 41 -193 524 -193 553 0 3 33 21 73 41 39 19 92 50 117 69
l45 36 35 -42 c19 -22 95 -106 168 -186z m-1016 180 c29 -22 80 -52 114 -66
l61 -26 -82 -251 c-45 -139 -91 -270 -102 -292 -41 -79 -105 -115 -200 -115
-144 0 -266 119 -265 257 1 83 4 88 302 417 58 64 108 116 112 116 4 0 31 -18
60 -40z m523 -155 c3 -22 26 -130 50 -240 54 -247 60 -291 45 -344 -22 -82
-110 -151 -212 -166 -93 -14 -218 46 -258 124 -27 54 -26 128 6 276 53 253 83
390 83 390 1 0 64 0 140 0 l139 0 7 -40z m78 -1516 c144 -57 448 -65 622 -16
50 14 99 29 110 33 16 6 14 1 -9 -24 -50 -54 -195 -116 -394 -168 -107 -27
-350 -74 -388 -74 l-24 0 0 141 c0 131 1 141 18 134 9 -4 38 -16 65 -26z"/>
<path d="M4453 1970 c-67 -14 -159 -55 -206 -90 -167 -129 -153 -272 53 -525
103 -127 138 -215 147 -365 15 -277 -138 -525 -422 -685 -27 -16 -51 -29 -53
-31 -5 -3 40 -74 47 -74 4 0 41 21 84 48 332 206 488 520 421 850 -22 111 -68
202 -160 320 -88 112 -131 188 -140 244 -13 74 58 154 174 199 67 26 225 36
317 21 33 -6 61 -9 62 -8 1 1 5 20 9 42 5 37 4 42 -17 48 -39 11 -271 16 -316
6z"/>
<path d="M3891 1508 c-29 -8 -33 -12 -28 -36 2 -15 10 -60 18 -99 l13 -73 43
0 c40 0 43 2 43 28 -1 43 -35 185 -45 188 -6 1 -25 -2 -44 -8z"/>
<path d="M3895 1093 c-3 -16 -14 -59 -24 -96 l-19 -69 34 -14 c18 -8 38 -14
43 -14 12 0 39 82 50 151 10 61 5 69 -46 69 -28 0 -33 -4 -38 -27z"/>
<path d="M3745 760 c-13 -14 -111 -85 -133 -96 -6 -3 40 -74 47 -74 20 0 171
120 171 135 0 7 -53 54 -61 55 -3 0 -14 -9 -24 -20z"/>
</g>
</svg>
