<?xml version="1.0" standalone="no"?>
<!DOCTYPE svg PUBLIC "-//W3C//DTD SVG 1.1//EN" "http://www.w3.org/Graphics/SVG/1.1/DTD/svg11.dtd" >
<svg xmlns="http://www.w3.org/2000/svg">
<metadata></metadata>
<defs>
<font id="FlamaBasicItalicRegular" horiz-adv-x="1120" >
<font-face units-per-em="2048" ascent="1638" descent="-410" />
<missing-glyph horiz-adv-x="428" />
<glyph horiz-adv-x="0" />
<glyph horiz-adv-x="2048" />
<glyph horiz-adv-x="428" />
<glyph unicode=" "  horiz-adv-x="428" />
<glyph unicode="&#x09;" horiz-adv-x="428" />
<glyph unicode="&#xa0;" horiz-adv-x="428" />
<glyph unicode="!" horiz-adv-x="583" d="M133 0l45 262h197l-45 -262h-197zM248 414l57 557l86 489h197l-86 -489l-137 -557h-117z" />
<glyph unicode="&#x22;" horiz-adv-x="808" d="M279 977l16 268l39 217h170l-37 -217l-80 -268h-108zM612 977l17 268l39 217h170l-39 -217l-76 -268h-111z" />
<glyph unicode="#" horiz-adv-x="1183" d="M53 385l39 123h219l144 463h-232l41 119h223l111 360h119l-109 -360h334l109 360h118l-108 -360h219l-37 -119h-219l-141 -463h223l-37 -123h-223l-119 -391h-119l115 391h-330l-117 -391h-120l118 391h-221zM432 508h330l143 463h-334z" />
<glyph unicode="$" horiz-adv-x="1118" d="M86 395l162 66q44 -109 113 -160t182 -51q126 0 210.5 59t84.5 164q0 24 -8 44.5t-25.5 37t-33 28t-44 23.5t-44.5 18t-48 17l-152 47q-109 35 -171.5 104.5t-63.5 170.5q0 167 114.5 267.5t294.5 121.5l39 209h146l-37 -211q118 -18 192.5 -77t110.5 -169l-166 -62 q-39 79 -99 117.5t-153 38.5q-103 0 -181.5 -56t-78.5 -155q0 -90 166 -145l156 -51q125 -38 197.5 -104.5t72.5 -178.5q0 -167 -119.5 -276.5t-316.5 -131.5l-37 -215h-146l37 211q-136 17 -227.5 96.5t-126.5 202.5z" />
<glyph unicode="%" horiz-adv-x="1585" d="M205 903q0 35 4 53l49 279q22 125 111.5 187.5t208.5 62.5q104 0 171.5 -49t67.5 -148q0 -25 -6 -55l-49 -283q-21 -116 -114.5 -178.5t-209.5 -62.5q-105 0 -169 49t-64 145zM242 -20l1091 1499h129l-1091 -1499h-129zM336 918q0 -46 30.5 -73.5t92.5 -27.5q72 0 117 38 t55 95l51 297q4 20 4 27q0 48 -32 78t-95 30q-69 0 -113 -37.5t-55 -97.5l-53 -297q-2 -12 -2 -32zM891 170q0 15 4 51l49 279q22 125 112 189.5t206 64.5q107 0 176 -49t69 -148q0 -25 -6 -55l-51 -281q-22 -118 -115.5 -181t-210.5 -63q-104 0 -168.5 49t-64.5 144z M1022 184q0 -47 31 -74.5t92 -27.5q73 0 118 39t56 98l51 295q4 20 4 29q0 47 -32.5 76.5t-94.5 29.5q-71 0 -115 -37t-55 -98l-53 -295q-2 -12 -2 -35z" />
<glyph unicode="&#x26;" horiz-adv-x="1421" d="M131 350q0 158 105.5 274t255.5 152l2 6q-82 34 -129.5 113t-47.5 162q0 106 43 190.5t117 137t167.5 79.5t199.5 27q80 0 149.5 -18.5t125 -54.5t88 -95t32.5 -135q0 -36 -10 -84h-174q4 32 4 59q0 90 -67 136.5t-181 46.5q-130 0 -216.5 -77t-86.5 -200q0 -95 70 -158 t155 -63h737q-1 -4 -13.5 -76.5t-12.5 -75.5h-201l-47 -270q-40 -221 -194.5 -338t-405.5 -117q-87 0 -167.5 23t-148 67t-108.5 119t-41 170zM336 373q0 -119 82 -187.5t196 -68.5q167 0 263.5 79t123.5 220l50 280h-404q-133 0 -222 -96.5t-89 -226.5z" />
<glyph unicode="'" horiz-adv-x="473" d="M287 977l16 268l39 217h170l-39 -217l-78 -268h-108z" />
<glyph unicode="(" horiz-adv-x="636" d="M197 250q0 337 119 664t341 573l109 -2q-195 -278 -305.5 -608.5t-110.5 -679.5q0 -303 88 -566l-104 -4q-70 108 -103.5 274.5t-33.5 348.5z" />
<glyph unicode=")" horiz-adv-x="636" d="M-76 -369q202 292 312 641t110 670q0 240 -94 543l106 2q138 -240 138 -610q0 -321 -123 -662.5t-340 -587.5z" />
<glyph unicode="*" horiz-adv-x="872" d="M236 1239l69 90l219 -139l47 270h111l-49 -270l266 139l41 -90l-278 -145l124 -234l-98 -59l-133 252l-221 -252l-82 59l205 236z" />
<glyph unicode="+" horiz-adv-x="1146" d="M82 586l22 127h463l82 465h131l-82 -465h461l-22 -127h-461l-82 -465h-131l82 465h-463z" />
<glyph unicode="," horiz-adv-x="481" d="M61 -252l97 256h-66l45 258h197l-45 -252l-131 -262h-97z" />
<glyph unicode="-" horiz-adv-x="735" d="M98 520l31 162h555l-29 -162h-557z" />
<glyph unicode="." horiz-adv-x="481" d="M90 0l47 262h197l-47 -262h-197z" />
<glyph unicode="/" horiz-adv-x="704" d="M-63 -365l710 1835h146l-707 -1835h-149z" />
<glyph unicode="0" horiz-adv-x="1202" d="M115 313q0 45 8 84q6 36 57.5 329t57.5 329q27 140 115 240t204 146t248 46q183 0 299.5 -89.5t116.5 -256.5q0 -39 -9 -88l-114 -641q-25 -137 -110.5 -238.5t-200.5 -150t-244 -48.5q-88 0 -164 20.5t-135.5 60.5t-94 106t-34.5 151zM317 350q0 -102 66 -160.5 t188 -58.5q132 0 219.5 82t112.5 203l113 645q6 24 6 59q0 94 -64 152.5t-182 58.5q-132 0 -225 -79t-117 -199l-112 -647q-5 -40 -5 -56z" />
<glyph unicode="1" horiz-adv-x="1083" d="M76 0l24 141h336l203 1149l-328 -49l17 137l477 88h53l-235 -1325h327l-26 -141h-848z" />
<glyph unicode="2" d="M90 0l23 125l524 504q67 62 114.5 114.5t91.5 116.5t66.5 133.5t22.5 143.5q0 88 -64 143t-159 55q-121 0 -192.5 -70.5t-92.5 -195.5h-170q5 31 12 64q40 170 159.5 261t309.5 91q169 0 278 -86.5t109 -243.5q0 -48 -8 -94t-19.5 -85.5t-33.5 -82.5t-41 -75t-52.5 -73.5 t-57.5 -68.5t-65.5 -68.5t-67 -65.5t-72 -67.5t-70.5 -66.5l-264 -240l-2 -8h612l-29 -160h-862z" />
<glyph unicode="3" horiz-adv-x="1148" d="M94 258q0 30 15 113h184q-8 -46 -8 -76q0 -60 37 -99.5t88 -54t114 -14.5q133 0 228.5 98.5t95.5 239.5q0 56 -23 99.5t-60 68.5t-78.5 38t-82.5 13h-119l25 137h117q132 0 220.5 87.5t88.5 230.5q0 92 -58.5 141t-150.5 49q-121 0 -199.5 -60.5t-99.5 -185.5h-178 q0 5 3.5 23.5t4.5 21.5q30 168 171 262.5t331 94.5q165 0 266.5 -78.5t101.5 -222.5q0 -136 -79.5 -258t-217.5 -160l-2 -6q101 -28 161.5 -105t60.5 -182q0 -148 -82.5 -264.5t-210.5 -176t-271 -57.5q-109 0 -195.5 29t-142 94.5t-55.5 159.5z" />
<glyph unicode="4" horiz-adv-x="1191" d="M90 391l29 152l735 917h209l-748 -911h433l53 289l200 102l-69 -391h194l-28 -158h-193l-67 -391h-185l68 391h-631z" />
<glyph unicode="5" horiz-adv-x="1138" d="M104 252q0 52 19 119h182q-10 -33 -10 -74q0 -84 68.5 -126t162.5 -42q130 0 215 80t113 219q20 107 20 147q0 99 -63.5 151t-161.5 52q-140 0 -274 -104q-2 0 -82 12t-82 12q9 41 90.5 389t87.5 373h768l-29 -157h-614l-117 -494q159 104 334 104q90 0 166.5 -31.5 t127 -100.5t50.5 -163q0 -24 -4 -56t-6.5 -48.5t-11 -60.5t-9.5 -47q-40 -211 -186 -321t-362 -110q-106 0 -192.5 28.5t-143 93t-56.5 155.5z" />
<glyph unicode="6" horiz-adv-x="1163" d="M139 315q0 43 8 82q78 463 117 666q35 194 182.5 308t348.5 114q77 0 145.5 -16t125.5 -48t90.5 -88.5t33.5 -130.5q0 -24 -14 -110h-183q11 53 11 69q0 86 -65 129t-167 43q-125 0 -207 -72t-104 -192l-55 -328q145 177 387 177q144 0 229.5 -72t85.5 -209 q0 -27 -6.5 -66t-42.5 -229q-19 -96 -67.5 -167.5t-119.5 -114.5t-156 -64t-184 -21q-171 0 -282 90t-111 250zM338 340q0 -96 61.5 -153.5t169.5 -57.5q119 0 204 64t104 169q5 31 13.5 77.5t12.5 68.5t7 48t3 44q0 50 -18.5 86t-51.5 55.5t-70 28t-81 8.5 q-108 0 -207 -70.5t-116 -168.5q-31 -177 -31 -199z" />
<glyph unicode="7" horiz-adv-x="1105" d="M219 0q38 193 119 389t185 361.5t217 303t227 238.5h-695l31 168h922l-25 -139q-88 -82 -159 -156.5t-175 -206t-182 -264t-151.5 -316.5t-110.5 -378h-203z" />
<glyph unicode="8" horiz-adv-x="1150" d="M115 279q0 34 20 155q20 107 95.5 190.5t181.5 120.5q-76 27 -117 89.5t-41 140.5q0 28 18 127q22 122 102 211t186.5 130.5t225.5 41.5q59 0 113.5 -9.5t105.5 -32t89 -55t61 -82.5t23 -112q0 -26 -8 -86t-17 -94q-17 -89 -88 -162t-170 -104q84 -26 132 -93t48 -159 q0 -24 -20 -138q-34 -184 -185.5 -283.5t-351.5 -99.5q-64 0 -121 10t-109.5 33t-90 57.5t-60 86.5t-22.5 117zM313 317q0 -92 67 -143t165 -51q121 0 206.5 63t108.5 176q21 100 21 132q0 93 -67 136.5t-169 43.5q-72 0 -135.5 -23t-113 -76t-64.5 -129q-3 -18 -8 -46 t-8 -47.5t-3 -35.5zM442 987q0 -90 66.5 -134t163.5 -44q104 0 193.5 61.5t107.5 163.5q18 104 18 123q0 89 -66 134.5t-169 45.5t-189 -60t-104 -161q-21 -96 -21 -129z" />
<glyph unicode="9" horiz-adv-x="1165" d="M127 256q0 24 14 115h183q-2 -12 -6.5 -36.5t-4.5 -35.5q0 -86 61 -129t161 -43q126 0 212.5 73.5t108.5 192.5q4 30 15 92t24 135t16 93q-69 -87 -172.5 -128.5t-216.5 -41.5q-136 0 -224.5 72.5t-88.5 207.5q0 37 41 273q34 188 183.5 289.5t350.5 101.5 q171 0 282.5 -90t111.5 -250q0 -35 -7 -82q-6 -35 -52.5 -301.5t-65.5 -368.5q-23 -128 -105 -225t-198 -146t-248 -49q-77 0 -142.5 16t-118.5 48t-83.5 87.5t-30.5 129.5zM403 862q0 -96 61 -140t154 -44q109 0 212 80t124 192q25 159 25 172q0 97 -61 155t-168 58 q-120 0 -205 -63.5t-105 -169.5q-37 -223 -37 -240z" />
<glyph unicode=":" horiz-adv-x="481" d="M66 0l47 260h196l-45 -260h-198zM195 776l45 260h196l-45 -260h-196z" />
<glyph unicode=";" horiz-adv-x="481" d="M59 -223l88 227h-67l47 254h197l-45 -250l-123 -231h-97zM209 776l47 260h197l-47 -260h-197z" />
<glyph unicode="&#x3c;" horiz-adv-x="1146" d="M121 600l18 105l948 419l37 -116l-807 -357l678 -362l-80 -117z" />
<glyph unicode="=" horiz-adv-x="1146" d="M61 381l19 127h1022l-23 -127h-1018zM131 791l23 127h1020l-23 -127h-1020z" />
<glyph unicode="&#x3e;" horiz-adv-x="1146" d="M96 289l805 364l-680 357l78 114l801 -419l-19 -105l-946 -428z" />
<glyph unicode="?" horiz-adv-x="1083" d="M231 1049l13 73q23 123 101 206.5t179 119t221 35.5q166 0 258.5 -77.5t92.5 -215.5q0 -65 -16 -124.5t-39.5 -102.5t-61.5 -86t-69 -70.5t-76 -61.5q-19 -15 -61 -46t-61 -47.5t-45.5 -43t-40 -54t-18.5 -60.5l-16 -93h-170l16 95q19 85 64 150t119 128q17 14 58.5 45.5 t66 51t59 54t54 64t34 71t14.5 85.5q0 87 -53.5 137.5t-148.5 50.5q-43 0 -84.5 -11t-84 -36t-76 -74t-48.5 -116q-5 -14 -11 -47h-170zM336 0l45 262h199l-45 -262h-199z" />
<glyph unicode="@" horiz-adv-x="1964" d="M154 547q0 174 49 323.5t136 258.5t205.5 186.5t259.5 116t296 38.5t296.5 -49t250 -136.5t173 -218.5t64.5 -286q0 -138 -37 -252t-97.5 -188.5t-140.5 -125.5t-163 -73t-168 -22h-121l27 147h-6q-56 -80 -144.5 -126t-167.5 -46q-132 0 -211.5 72t-79.5 199q0 37 9 75 q4 29 22.5 138t22.5 131q30 175 140.5 272.5t268.5 97.5q83 0 155.5 -40.5t94.5 -116.5h8l27 143h152l-144 -838q77 4 148.5 39t132.5 100.5t98 174.5t37 247q0 103 -37.5 194t-102 158.5t-148.5 116.5t-179.5 74t-192.5 25q-164 0 -309 -52.5t-255.5 -151t-175 -252 t-64.5 -343.5q0 -271 139 -452t362 -246q116 -37 295 -37q219 0 437 63l26 -100q-198 -78 -485 -78q-86 0 -188.5 14t-170.5 39q-119 42 -216 110.5t-172.5 164.5t-116.5 227t-39 285zM739 395q0 -76 52.5 -117.5t140.5 -41.5q104 0 186.5 73t102.5 191l32 196q4 32 4 47 q0 98 -61.5 148.5t-148.5 50.5q-101 0 -169 -58t-87 -163l-48 -275q-4 -24 -4 -51z" />
<glyph unicode="A" horiz-adv-x="1355" d="M-10 0l801 1462h184l280 -1462h-202l-68 385h-586l-206 -385h-203zM481 553h477l-114 670h-6z" />
<glyph unicode="B" horiz-adv-x="1308" d="M96 0l256 1460h582q102 0 184 -32.5t134.5 -105t52.5 -175.5q0 -145 -79.5 -243.5t-224.5 -133.5v-4q107 -24 166.5 -107t59.5 -190q0 -110 -45 -201t-120.5 -148.5t-168.5 -88.5t-193 -31h-604zM322 168h368q68 0 128 16.5t108.5 50t77 90.5t28.5 132q0 101 -74.5 154 t-181.5 53h-364zM440 831h346q84 0 153.5 27t116 90t46.5 154q0 95 -68 142.5t-168 47.5h-346z" />
<glyph unicode="C" horiz-adv-x="1325" d="M137 379q0 50 8 94q47 285 84 490q45 240 226.5 382t429.5 142q129 0 232 -41t166 -126t63 -202q0 -56 -19 -143h-186q10 59 10 94q0 115 -82 178.5t-217 63.5q-162 0 -279 -94t-145 -248q-61 -331 -86 -484q0 -4 -3 -28.5t-3 -36.5q0 -128 91 -199t230 -71 q154 0 260 82.5t132 220.5q0 1 2 11t2 11h186l-8 -49q-41 -208 -208 -329.5t-398 -121.5q-99 0 -185.5 25t-155 73.5t-108 127t-39.5 178.5z" />
<glyph unicode="D" horiz-adv-x="1370" d="M96 0l256 1460h551q202 0 331.5 -106t129.5 -297q0 -56 -8 -103q-8 -46 -41 -232.5t-41 -232.5q-41 -228 -212.5 -358.5t-412.5 -130.5h-553zM324 174h346q163 0 271.5 85.5t133.5 227.5q60 324 84 474q8 46 8 69q0 121 -85.5 188.5t-223.5 67.5h-338z" />
<glyph unicode="E" horiz-adv-x="1234" d="M96 0l256 1460h961l-29 -174h-764l-80 -448h654l-31 -174h-653l-86 -490h768l-31 -174h-965z" />
<glyph unicode="F" horiz-adv-x="1159" d="M96 0l256 1460h938l-28 -174h-740l-82 -457h619l-31 -174h-618l-115 -655h-199z" />
<glyph unicode="G" horiz-adv-x="1349" d="M137 379q0 57 8 98q52 288 84 486q28 155 121.5 274.5t232 184.5t300.5 65q130 0 231.5 -37.5t165 -120t63.5 -201.5q0 -42 -18 -141h-182q12 73 12 96q0 113 -84 170.5t-219 57.5q-161 0 -278.5 -94t-145.5 -248q-10 -55 -43 -242t-43 -242q-1 -8 -2.5 -22t-2.5 -25.5 t-1 -21.5q0 -127 91 -196.5t230 -69.5q158 0 263 78.5t131 215.5l22 125h-393l29 179h581q-6 -36 -27.5 -161t-27.5 -161q-38 -207 -207 -329t-403 -122q-98 0 -184.5 25t-155 73t-108.5 127t-40 179z" />
<glyph unicode="H" horiz-adv-x="1404" d="M96 0l256 1460h199l-111 -622h693l110 622h197l-258 -1460h-197l117 664h-692l-117 -664h-197z" />
<glyph unicode="I" horiz-adv-x="516" d="M96 0l256 1460h199l-258 -1460h-197z" />
<glyph unicode="J" horiz-adv-x="1167" d="M59 317q0 53 27 211h188q-2 -12 -6.5 -37.5t-7 -41t-4.5 -37.5t-2 -41q0 -217 250 -217q138 0 220.5 83t104.5 205l177 1018h198l-186 -1044q-35 -201 -187 -321t-370 -120q-181 0 -291.5 89t-110.5 253z" />
<glyph unicode="K" horiz-adv-x="1339" d="M94 0l258 1460h199l-131 -737h4l797 737h239l-639 -583l428 -877h-221l-356 741l-293 -258l-86 -483h-199z" />
<glyph unicode="L" horiz-adv-x="1157" d="M96 0l256 1460h199l-227 -1286h741l-31 -174h-938z" />
<glyph unicode="M" horiz-adv-x="1660" d="M96 0l256 1460h236l274 -907h4l578 907h252l-258 -1460h-191l195 1106h-8l-539 -830h-156l-252 826h-8l-192 -1102h-191z" />
<glyph unicode="N" horiz-adv-x="1419" d="M96 0l258 1460h195l512 -1130h6l199 1130h188l-258 -1460h-190l-514 1135h-7l-200 -1135h-189z" />
<glyph unicode="O" horiz-adv-x="1378" d="M137 375q0 51 8 92q9 55 42 244.5t42 244.5q28 155 124.5 277t236 188t297.5 66q101 0 188.5 -27t154.5 -78.5t105.5 -131.5t38.5 -179q0 -54 -8 -98q-9 -51 -41 -233.5t-41 -233.5q-28 -156 -124 -278t-235.5 -187.5t-297.5 -65.5q-98 0 -184.5 24.5t-155.5 71.5 t-109.5 125.5t-40.5 178.5zM338 416q0 -126 90.5 -196t228.5 -70q159 0 279 93.5t149 248.5q9 58 43.5 248t42.5 241q7 40 7 70q0 127 -89 193.5t-231 66.5q-165 0 -281.5 -92t-146.5 -256q0 -2 -37 -207.5t-49 -270.5q0 -5 -3 -30t-3 -39z" />
<glyph unicode="P" horiz-adv-x="1265" d="M96 0l256 1460h547q179 0 293.5 -105.5t114.5 -277.5q0 -157 -78 -274t-206.5 -175.5t-287.5 -58.5h-342l-100 -569h-197zM424 737h303q172 0 277.5 82t105.5 242q0 111 -74.5 172t-189.5 61h-326z" />
<glyph unicode="Q" horiz-adv-x="1378" d="M137 375q0 51 8 92q9 55 42 244.5t42 244.5q28 155 124.5 277t236 188t297.5 66q101 0 188.5 -27t154.5 -78.5t105.5 -131.5t38.5 -179q0 -54 -8 -98q-9 -51 -41 -233.5t-41 -233.5q-27 -150 -117 -264.5t-221 -175.5l250 -152l-143 -145l-308 217q-71 -11 -118 -11 q-98 0 -184.5 24.5t-155.5 71.5t-109.5 125.5t-40.5 178.5zM338 416q0 -126 90.5 -196t228.5 -70q159 0 279 93.5t149 248.5q9 58 43.5 248t42.5 241q7 40 7 70q0 127 -89 193.5t-231 66.5q-165 0 -281.5 -92t-146.5 -256q0 -2 -37 -207.5t-49 -270.5q0 -5 -3 -30t-3 -39z " />
<glyph unicode="R" horiz-adv-x="1296" d="M96 0l256 1460h508q74 0 138 -13.5t119.5 -43.5t95.5 -74t62.5 -109t22.5 -145q0 -185 -113.5 -314.5t-303.5 -158.5q20 -33 142.5 -302.5t139.5 -299.5h-217l-258 575h-295l-100 -575h-197zM424 743h301q173 0 276 79.5t103 240.5q0 231 -279 231h-305z" />
<glyph unicode="S" horiz-adv-x="1239" d="M47 315l178 78q37 -119 141.5 -182.5t241.5 -63.5q63 0 122.5 14.5t110.5 42.5t82 76t31 109q0 95 -80 158.5t-243 124.5q-71 27 -123 51.5t-103.5 58.5t-83.5 71.5t-51.5 88t-19.5 109.5q0 137 70 237t187.5 149.5t266.5 49.5q80 0 151.5 -15t138 -46.5t118 -88.5 t78.5 -135l-160 -65q-45 90 -131.5 136t-198.5 46q-83 0 -153.5 -24t-119 -80t-48.5 -136q0 -26 9.5 -49t24 -42.5t42.5 -40t53.5 -36t70 -36.5t78 -35.5t90.5 -38.5q328 -132 328 -369q0 -111 -45.5 -200t-123.5 -144t-177 -84t-211 -29q-194 0 -336.5 82.5t-204.5 257.5z " />
<glyph unicode="T" horiz-adv-x="1218" d="M217 1290l31 170h1108l-31 -170h-455l-227 -1290h-197l228 1290h-457z" />
<glyph unicode="U" horiz-adv-x="1392" d="M162 371q0 62 8 114l174 975h197l-168 -944q-8 -66 -8 -94q0 -135 80.5 -201.5t213.5 -66.5q175 0 281.5 93.5t136.5 264.5l168 948h197q-22 -122 -89 -500.5t-81 -459.5q-43 -245 -215.5 -385t-427.5 -140q-75 0 -142 13t-127.5 43.5t-103.5 75t-68.5 112.5t-25.5 152z " />
<glyph unicode="V" horiz-adv-x="1208" d="M205 1460h203l170 -1179h6l587 1179h205l-747 -1462h-199z" />
<glyph unicode="W" horiz-adv-x="1804" d="M231 1460h199l66 -1138h6l497 1138h181l90 -1143h6l473 1143h197l-635 -1462h-187l-88 1143h-6l-493 -1143h-189z" />
<glyph unicode="X" horiz-adv-x="1187" d="M-55 0l602 762l-305 698h213l221 -545l420 545h219l-555 -702l334 -758h-217l-250 592l-461 -592h-221z" />
<glyph unicode="Y" horiz-adv-x="1210" d="M215 1460h209l244 -669l477 669h217l-631 -864l-104 -596h-191l105 600z" />
<glyph unicode="Z" horiz-adv-x="1169" d="M10 0q0 1 14.5 79t14.5 79l956 1134h-721l31 168h975q0 -1 -14.5 -75.5t-14.5 -75.5l-956 -1135h762l-31 -174h-1016z" />
<glyph unicode="[" horiz-adv-x="675" d="M53 -381l330 1866h416l-21 -119h-256l-284 -1628h254l-23 -119h-416z" />
<glyph unicode="\" horiz-adv-x="704" d="M131 1477h145l523 -1815h-144z" />
<glyph unicode="]" horiz-adv-x="675" d="M-82 -381l23 119h254l286 1628h-256l23 119h416l-330 -1866h-416z" />
<glyph unicode="^" horiz-adv-x="1067" d="M197 301l358 924h199l94 -924h-162l-59 762l-273 -762h-157z" />
<glyph unicode="_" horiz-adv-x="1024" d="M-78 -264l19 125h1024l-21 -125h-1022z" />
<glyph unicode="`" horiz-adv-x="657" d="M242 1538h215l188 -338h-147z" />
<glyph unicode="a" d="M82 272q0 38 6 82q5 29 26.5 148.5t26.5 148.5q33 189 157 296.5t302 107.5q59 0 113.5 -16.5t101 -54.5t64.5 -93h8l28 143h177l-185 -1034h-176l29 158h-6q-60 -84 -159.5 -133.5t-186.5 -49.5q-148 0 -237 79t-89 218zM270 313q0 -86 57.5 -134t153.5 -48 q110 0 203.5 76.5t114.5 198.5l41 233q4 36 4 51q0 100 -68.5 156.5t-167.5 56.5q-105 0 -182.5 -64t-97.5 -177l-54 -302q-4 -32 -4 -47z" />
<glyph unicode="b" horiz-adv-x="1124" d="M70 0l258 1460h182l-102 -577h6q63 82 154.5 127t185.5 45q148 0 235.5 -79t87.5 -220q0 -43 -8 -82q-6 -35 -26.5 -154.5t-24.5 -140.5q-23 -127 -93 -219.5t-170 -138.5t-220 -46q-84 0 -156.5 45t-99.5 121h-9q-2 -9 -15 -70.5t-15 -70.5h-170zM315 340 q0 -100 65 -156.5t161 -56.5q112 0 191 64t99 178l54 303q4 32 4 45q0 90 -59 136t-156 46q-111 0 -203 -79t-113 -204l-39 -225q-4 -32 -4 -51z" />
<glyph unicode="c" horiz-adv-x="1001" d="M76 297q0 41 6.5 92.5t13 85.5t27.5 139q40 203 174.5 322t335.5 119q161 0 260.5 -77.5t99.5 -219.5q0 -27 -12 -101h-172q8 39 8 68q0 78 -56 127t-155 49q-123 0 -194.5 -72t-96.5 -194q-45 -232 -45 -309q0 -94 62.5 -143.5t167.5 -49.5q154 0 329 119l62 -135 q-181 -142 -422 -142q-169 0 -281 84t-112 238z" />
<glyph unicode="d" horiz-adv-x="1124" d="M80 272q0 43 8 82l51 297q35 191 159.5 297.5t301.5 106.5q89 0 169 -43t108 -121h4l100 569h182l-256 -1460h-176l29 158h-6q-62 -84 -161 -133.5t-187 -49.5q-148 0 -237 79t-89 218zM268 313q0 -86 58.5 -134t154.5 -48q109 0 202 76.5t114 198.5l41 233q6 27 6 55 q0 97 -65.5 153t-162.5 56q-107 0 -187.5 -64t-100.5 -177l-56 -302q-4 -32 -4 -47z" />
<glyph unicode="e" horiz-adv-x="1060" d="M78 303q0 34 5.5 73t19 115t20.5 117q38 204 182.5 325.5t345.5 121.5q161 0 260 -81t99 -235q0 -24 -3.5 -58t-7.5 -59.5t-12 -74.5t-12 -74h-686q-21 -123 -21 -145q0 -96 67.5 -148.5t174.5 -52.5q165 0 344 106l59 -118q-72 -67 -190.5 -103.5t-249.5 -36.5 q-82 0 -152 19.5t-125 58t-86.5 103t-31.5 147.5zM313 602h504q12 82 12 109q0 91 -52.5 140.5t-151.5 49.5q-118 0 -196 -67.5t-103 -171.5q-13 -39 -13 -60z" />
<glyph unicode="f" horiz-adv-x="653" d="M84 -389l223 1280h-174l27 141h174l28 164q25 146 110 219.5t224 73.5q56 0 115 -12l-27 -152q-44 8 -94 8q-55 0 -94.5 -31t-52.5 -96l-29 -174h211l-27 -141h-211l-223 -1256z" />
<glyph unicode="g" horiz-adv-x="1118" d="M20 -260l130 96q91 -110 258 -110q128 0 213.5 75t107.5 205q3 16 17 91.5t16 86.5h-8q-61 -84 -148.5 -127t-183.5 -43q-152 0 -240 74t-88 217q0 47 8 96q2 17 50 273q32 183 150 283t292 100q56 0 111.5 -16t106 -58t67.5 -102h4l28 153h176l-180 -1018 q-36 -209 -180.5 -322.5t-359.5 -113.5q-111 0 -205.5 43.5t-141.5 116.5zM285 344q0 -88 57 -137t154 -49q111 0 199 72.5t110 199.5q43 242 43 264q0 102 -66 154.5t-170 52.5q-106 0 -181.5 -61.5t-96.5 -180.5q-49 -274 -49 -315z" />
<glyph unicode="h" horiz-adv-x="1130" d="M72 0l258 1460h180l-104 -586l8 -2q64 84 158.5 134.5t193.5 50.5q132 0 210.5 -74.5t78.5 -181.5q0 -4 -13 -105l-122 -696h-183l113 637q12 81 12 96q0 79 -48 120.5t-136 41.5q-122 0 -210 -85.5t-110 -215.5l-104 -594h-182z" />
<glyph unicode="i" horiz-adv-x="468" d="M72 0l182 1034h180l-180 -1034h-182zM285 1221l45 237h182l-45 -237h-182z" />
<glyph unicode="j" horiz-adv-x="509" d="M-172 -403l29 153q5 0 32 -1t35 -1q139 0 166 152l201 1134h180l-201 -1149q-55 -293 -362 -293q-30 0 -80 5zM322 1221l45 237h182l-45 -237h-182z" />
<glyph unicode="k" horiz-adv-x="1038" d="M72 0l256 1460h182l-160 -913l522 487h218l-439 -395l295 -639h-194l-238 522l-201 -180l-61 -342h-180z" />
<glyph unicode="l" horiz-adv-x="595" d="M117 174q0 28 8 86l213 1200h182l-213 -1202q0 -5 -1 -20.5t-1 -20.5q0 -76 92 -76q23 0 68.5 4t54.5 5l-24 -138q-88 -24 -172 -24q-103 0 -155 50t-52 136z" />
<glyph unicode="m" horiz-adv-x="1796" d="M72 0l182 1034h176l-29 -160l7 -2q67 88 161.5 136.5t196.5 48.5q119 0 191.5 -60t86.5 -153q79 106 180.5 159.5t207.5 53.5q133 0 210.5 -74t77.5 -182q0 -43 -12 -105q-6 -37 -61.5 -348t-61.5 -348h-182l113 637q12 75 12 96q0 79 -48 120.5t-137 41.5 q-121 0 -206 -83t-111 -212l-106 -600h-183l113 637q12 75 12 96q0 79 -48 120.5t-136 41.5q-122 0 -209 -85t-111 -216l-104 -594h-182z" />
<glyph unicode="n" horiz-adv-x="1128" d="M72 0q8 48 91 517t91 517h176l-29 -160l7 -2q67 88 161.5 136.5t196.5 48.5q132 0 210.5 -74.5t78.5 -181.5q0 -11 -13 -105l-122 -696h-183l113 637q12 75 12 96q0 79 -48 120.5t-136 41.5q-122 0 -209 -85t-111 -216l-104 -594h-182z" />
<glyph unicode="o" horiz-adv-x="1079" d="M78 293q0 22 8 84l45 256q33 190 179 306t337 116q168 0 274.5 -86t106.5 -242q0 -30 -8 -92l-41 -238q-35 -191 -179 -306.5t-335 -115.5q-169 0 -278 81t-109 237zM266 319q0 -92 60 -141t163 -49q122 0 202 67.5t102 188.5l45 266q6 30 6 60q0 91 -60 139.5t-163 48.5 q-123 0 -203 -69t-101 -185l-45 -266q-6 -32 -6 -51v-9z" />
<glyph unicode="p" horiz-adv-x="1124" d="M2 -397l252 1431h176l-27 -149h7q65 80 158.5 126t185.5 46q148 0 236.5 -79t88.5 -220q0 -40 -6 -80q-5 -33 -27 -152t-26 -145q-33 -189 -164.5 -297.5t-310.5 -108.5q-85 0 -157 45.5t-99 122.5h-8l-99 -540h-180zM317 340q0 -99 65 -155t161 -56q107 0 188.5 63.5 t102.5 176.5l53 303q6 21 6 47q0 88 -60.5 135t-158.5 47q-108 0 -199.5 -79t-112.5 -201l-40 -228q-5 -45 -5 -53z" />
<glyph unicode="q" horiz-adv-x="1124" d="M80 274q0 43 8 82q21 127 51 295q33 192 156.5 299t300.5 107q91 0 173 -44t108 -124h4l26 147h180l-253 -1444h-179l101 560l-6 2q-63 -83 -160.5 -131t-183.5 -48q-148 0 -237 79t-89 220zM268 313q0 -86 58 -133t155 -47q109 0 202 76t114 199l41 233q6 48 6 53 q0 99 -70 154t-168 55q-105 0 -182 -64t-98 -177l-54 -306q-4 -28 -4 -43z" />
<glyph unicode="r" horiz-adv-x="792" d="M72 0l182 1034h176l-35 -196h8q68 103 180 158t218 55q33 0 73 -4l-30 -168q-31 6 -105 6q-151 0 -255.5 -88.5t-133.5 -245.5l-96 -551h-182z" />
<glyph unicode="s" horiz-adv-x="966" d="M25 131l112 111q128 -121 295 -121q47 0 89 8t82.5 26t64.5 54t24 86q0 64 -82 107q-34 18 -131 55q-64 23 -100 38t-81.5 40t-69 50.5t-40 64t-16.5 85.5q0 148 114 235t296 87q230 0 352 -119l-109 -113q-49 39 -118.5 64.5t-141.5 25.5q-91 0 -157 -41.5t-66 -119.5 q0 -43 32.5 -70.5t102.5 -54.5q21 -8 64 -24.5t68.5 -26t64 -27t62.5 -32.5t52.5 -37t44 -44t26.5 -51.5t11 -62.5q0 -75 -26 -135.5t-69 -100t-101.5 -65.5t-120.5 -37t-129 -11q-127 0 -232 38t-167 118z" />
<glyph unicode="t" horiz-adv-x="700" d="M98 887l25 145h168l57 322h182l-57 -322h262l-26 -145h-260l-109 -617q-4 -28 -4 -39q0 -86 110 -86q48 0 144 17l-25 -156q-94 -20 -188 -20q-65 0 -114.5 15.5t-83.5 58t-34 108.5q0 32 5 57l116 662h-168z" />
<glyph unicode="u" d="M111 248q0 30 8 92l123 694h182l-113 -637q-10 -62 -10 -96q0 -87 45.5 -125.5t136.5 -38.5q121 0 208.5 86.5t111.5 216.5l106 594h181q-8 -48 -91.5 -517t-91.5 -517h-176l29 160l-8 2q-67 -88 -160.5 -136.5t-194.5 -48.5q-137 0 -211.5 72t-74.5 199z" />
<glyph unicode="v" horiz-adv-x="970" d="M121 1034h188l131 -798h6l406 798h186l-542 -1034h-183z" />
<glyph unicode="w" horiz-adv-x="1544" d="M125 1034h190l84 -794h7l376 794h164l94 -794h9l368 794h191l-510 -1036h-180l-95 795h-6l-368 -795h-183z" />
<glyph unicode="x" horiz-adv-x="983" d="M-47 0l461 539l-252 495h200l170 -354l291 354h209l-424 -493l273 -541h-199l-190 393l-328 -393h-211z" />
<glyph unicode="y" horiz-adv-x="1005" d="M-76 -397l29 157q64 -12 121 -12q55 0 104 34t78 87l82 156l-209 1009h195l147 -794h4l397 794h197l-655 -1216q-68 -125 -159.5 -177.5t-207.5 -52.5q-44 0 -123 15z" />
<glyph unicode="z" horiz-adv-x="942" d="M-6 0l24 139l674 748h-524l27 147h768l-25 -141l-676 -739h559l-26 -154h-801z" />
<glyph unicode="{" horiz-adv-x="669" d="M92 -231q0 25 6 59l107 606q6 30 6 53q0 35 -18 51t-58 21l25 129q59 10 79 30.5t29 72.5l82 464q18 100 74.5 152.5t138.5 52.5h242l-23 -119h-213q-41 0 -49 -45l-82 -471q-13 -79 -48 -126t-97 -70l-2 -8q45 -20 64.5 -47.5t19.5 -71.5q0 -30 -6 -76l-113 -639 q-2 -6 -2 -14q0 -31 35 -31h213l-23 -119h-241q-69 0 -107.5 37t-38.5 109z" />
<glyph unicode="|" horiz-adv-x="665" d="M127 -109l281 1594h151l-280 -1594h-152z" />
<glyph unicode="}" horiz-adv-x="669" d="M-92 -377l22 119h211q42 0 49 45l113 639q13 86 43.5 126.5t99.5 68.5l3 8q-82 34 -82 129q0 26 6 67l84 471v13q0 32 -35 32h-213l22 119h242q68 0 105.5 -37t37.5 -108q0 -14 -4 -60l-82 -464q-6 -24 -6 -41q0 -26 17.5 -39.5t62.5 -22.5l-22 -129q-54 -6 -78.5 -33 t-36.5 -92l-107 -606q-17 -100 -74 -152.5t-139 -52.5h-239z" />
<glyph unicode="~" horiz-adv-x="1148" d="M68 543q35 100 95 160.5t144 60.5q57 0 317.5 -35t315.5 -35q21 0 36.5 6t30 23.5t20 26.5t22.5 38l102 -20q-84 -223 -236 -223q-58 0 -321.5 34.5t-317.5 34.5q-33 0 -53 -19.5t-51 -72.5z" />
<glyph unicode="&#xa1;" horiz-adv-x="583" d="M66 -348l77 448l146 598h117l-64 -598l-80 -448h-196zM279 850l45 262h196l-45 -262h-196z" />
<glyph unicode="&#xa2;" horiz-adv-x="1099" d="M137 352q0 56 62 400q29 166 141.5 270t277.5 125l31 201h156l-33 -203q124 -15 196 -84.5t72 -181.5q0 -18 -2.5 -36t-7 -43t-6.5 -34h-172q10 62 10 74q0 70 -52.5 114.5t-143.5 44.5q-115 0 -191.5 -67t-95.5 -176q-52 -282 -55 -299q-5 -45 -5 -60q0 -88 58 -136 t155 -46q234 3 265 236h172q-24 -177 -119 -265t-266 -116l-33 -207h-156l33 207q-133 14 -212 88.5t-79 193.5z" />
<glyph unicode="&#xa3;" horiz-adv-x="1202" d="M57 0l29 154h168l90 520h-147l20 119h148l53 297q35 195 166.5 295t320.5 100q147 0 237.5 -71.5t90.5 -207.5q0 -50 -16 -135h-173q15 81 15 105q0 79 -48 122t-143 43q-220 0 -262 -229l-57 -319h426l-19 -119h-428l-90 -520h652l-66 -154h-967z" />
<glyph unicode="&#xa4;" horiz-adv-x="1001" d="M102 403l107 109q-66 98 -66 205t64 201q-99 99 -105 108l84 84l105 -102q98 69 211 69q114 0 209 -69l102 102l86 -84l-102 -104q65 -94 65 -205t-67 -207l104 -107l-86 -84l-104 105q-95 -66 -205 -66q-113 0 -211 66l-107 -105zM276 715q0 -98 62 -169t164 -71 q109 0 168 68.5t59 173.5q0 103 -62 174.5t-163 71.5q-110 0 -169 -70t-59 -178z" />
<glyph unicode="&#xa5;" horiz-adv-x="1218" d="M133 537l21 125h374l-290 798h204l236 -684l483 684h197l-576 -798h371l-20 -125h-398l-94 -537h-201l95 537h-402z" />
<glyph unicode="&#xa6;" horiz-adv-x="886" d="M309 -98l131 737h115l-129 -737h-117zM467 786l119 674h116l-120 -674h-115z" />
<glyph unicode="&#xa7;" horiz-adv-x="1150" d="M92 63q0 57 21 127h157q-10 -45 -10 -79q0 -150 225 -150q129 0 212 59t83 146q0 60 -46.5 92t-160.5 66q-197 60 -276.5 122.5t-79.5 157.5q0 93 52 174t163 140q-65 37 -96 82.5t-31 107.5q0 157 124 263t335 106q163 0 253.5 -64.5t90.5 -183.5q0 -44 -16 -123h-156 q12 70 12 84q0 65 -56 104t-159 39q-106 0 -183 -48t-77 -134q0 -11 2.5 -20.5t5.5 -17.5t10.5 -16.5t12.5 -13.5t16 -12.5t16.5 -11t19 -10t18 -8.5t20 -9t18.5 -8q20 -8 63 -23.5t66.5 -25t62.5 -25.5t61.5 -28.5t52.5 -30.5t47.5 -36t34.5 -40t24.5 -47t7.5 -53 q0 -91 -58.5 -178t-152.5 -134q127 -63 127 -186q0 -170 -137.5 -285.5t-357.5 -115.5q-69 0 -130 13t-114.5 40.5t-85 77t-31.5 116.5zM385 645q0 -46 43.5 -77.5t124.5 -55.5q5 -1 63.5 -19.5t63.5 -19.5q78 25 130 78.5t52 107.5q0 50 -62 91.5t-231 93.5 q-72 -28 -128 -80t-56 -119z" />
<glyph unicode="&#xa8;" horiz-adv-x="956" d="M326 1200l41 232h182l-41 -232h-182zM725 1200l41 232h182l-41 -232h-182z" />
<glyph unicode="&#xa9;" horiz-adv-x="1918" d="M176 530q0 198 77 383.5t207.5 324.5t314.5 222.5t386 83.5q164 0 297 -51.5t220.5 -142t134.5 -213t47 -265.5q0 -195 -77.5 -378t-208.5 -320t-317 -220t-391 -83q-166 0 -297.5 49.5t-217 137.5t-130.5 208t-45 264zM299 549q0 -271 160.5 -425.5t421.5 -154.5 q107 0 213 30.5t200.5 85.5t176.5 136.5t141 179t93 217t34 246.5q0 180 -79 314t-212.5 202t-302.5 68q-125 0 -248 -40.5t-230.5 -119t-190 -186t-130 -251t-47.5 -302.5zM567 455q0 5 0.5 9.5t1.5 13t2 17.5t4 26.5l6 35t8.5 49t11 64t14.5 83.5t18 103q33 185 166.5 291 t316.5 106q159 0 252.5 -70.5t93.5 -199.5q0 -23 -16 -127h-168q12 86 12 92q0 72 -47.5 115t-148.5 43q-118 0 -190.5 -70.5t-92.5 -183.5q-12 -70 -24 -137.5t-18 -99.5t-11 -61.5t-6.5 -44t-1.5 -26.5q0 -182 200 -182q117 0 184.5 58t82.5 141q1 4 4.5 27.5t3.5 25.5 h166q-4 -25 -15 -80q-34 -158 -158.5 -237.5t-295.5 -79.5q-160 0 -257.5 78t-97.5 221z" />
<glyph unicode="&#xaa;" horiz-adv-x="823" d="M180 524l25 119h522l-22 -119h-525zM217 915q0 63 25.5 111t64 75.5t91.5 45t100.5 23.5t99.5 6h96q2 15 6.5 40t7.5 43t3 29q0 49 -31 73.5t-86 24.5q-61 0 -106.5 -27.5t-55.5 -80.5q-1 -1 -3.5 -13t-2.5 -14h-123l6 25q13 70 64 118.5t115 68.5t137 20 q96 0 159.5 -41.5t63.5 -128.5q0 -21 -6 -45q-8 -45 -27.5 -151.5t-32 -186.5t-18.5 -154h-125q1 4 5 46.5t5 45.5q-99 -108 -237 -108q-81 0 -138 39t-57 116zM358 948q0 -44 33 -66t80 -22q70 0 127.5 44t67.5 112l14 78h-121q-201 0 -201 -146z" />
<glyph unicode="&#xab;" horiz-adv-x="1132" d="M119 547l473 399l76 -86l-328 -315l213 -318l-100 -75zM575 547l472 399l77 -86l-327 -315l213 -318l-101 -75z" />
<glyph unicode="&#xac;" horiz-adv-x="1312" d="M133 612l23 127h1073l-94 -532h-144l70 405h-928z" />
<glyph unicode="&#xad;" horiz-adv-x="735" d="M98 520l31 162h555l-29 -162h-557z" />
<glyph unicode="&#xae;" horiz-adv-x="1075" d="M221 985q0 139 70 260t189 192.5t257 71.5q170 0 268.5 -98t98.5 -252q0 -135 -69 -254.5t-189.5 -192.5t-261.5 -73q-168 0 -265.5 97.5t-97.5 248.5zM309 999q0 -132 80.5 -209t204.5 -77q104 0 200.5 54.5t159 156.5t62.5 225q0 136 -78.5 213.5t-212.5 77.5 q-77 0 -151 -31.5t-133 -87t-95.5 -140t-36.5 -182.5zM449 834l88 495h200q70 0 110 -33t40 -90q0 -60 -37 -108t-100 -66q4 -7 45 -96t49 -102h-103l-88 188h-75l-35 -188h-94zM590 1092h88q50 0 81.5 27t31.5 73q0 61 -84 61h-89z" />
<glyph unicode="&#xaf;" horiz-adv-x="819" d="M268 1225l31 157h563l-31 -157h-563z" />
<glyph unicode="&#xb0;" horiz-adv-x="655" d="M236 1227q0 105 82.5 186.5t191.5 81.5q90 0 143.5 -52.5t53.5 -133.5q0 -107 -84 -186t-193 -79q-89 0 -141.5 52t-52.5 131zM336 1243q0 -48 30 -79t80 -31q64 0 113 48t49 113q0 49 -30 82t-84 33q-62 0 -110 -49.5t-48 -116.5z" />
<glyph unicode="&#xb1;" horiz-adv-x="1146" d="M4 18l23 129h995l-23 -129h-995zM119 750l22 127h445l80 448h131l-80 -448h444l-22 -127h-443l-80 -447h-131l80 447h-446z" />
<glyph unicode="&#xb2;" horiz-adv-x="708" d="M186 778l17 99l319 297q29 28 47.5 48.5t41 51.5t33.5 64t11 69q0 39 -25.5 63.5t-76.5 24.5q-52 0 -88.5 -30t-48.5 -83q0 -2 -2 -14t-2 -14h-140q0 2 3.5 19.5t3.5 19.5q20 106 103.5 162.5t203.5 56.5q109 0 165 -49.5t56 -132.5q0 -25 -5 -50.5t-11 -46.5 t-20.5 -46.5t-24 -42t-31.5 -43t-32.5 -39t-38 -40t-37 -36.5t-41 -38t-38.5 -36l-122 -113h323l-20 -121h-523z" />
<glyph unicode="&#xb3;" horiz-adv-x="718" d="M178 922q0 22 6 43q0 1 3 13.5t3 14.5h142l-2 -16q-4 -12 -4 -29q0 -80 116 -80q62 0 109 45t47 115q0 30 -13 51t-34 31t-39.5 14t-36.5 4h-76l19 109h74q66 0 109.5 37.5t43.5 114.5q0 44 -29 67t-71 23q-56 0 -93 -27.5t-46 -77.5l-3 -18h-141l4 30q19 96 101 154.5 t204 58.5q111 0 167.5 -50.5t56.5 -127.5q0 -78 -46 -143t-120 -86v-4q55 -16 90 -56.5t35 -99.5q0 -56 -21.5 -103.5t-56 -79t-79.5 -53.5t-91 -32t-92 -10q-115 0 -175.5 45.5t-60.5 122.5z" />
<glyph unicode="&#xb4;" horiz-adv-x="589" d="M289 1200l237 338h217l-305 -338h-149z" />
<glyph unicode="&#xb5;" horiz-adv-x="1128" d="M2 -365l244 1399h184l-119 -680q-6 -21 -6 -43q0 -74 49 -122t133 -48q101 0 197.5 77.5t114.5 180.5l110 635h187l-123 -690q-1 -8 -3.5 -28.5t-2.5 -30.5q0 -75 61 -84l-37 -207q-109 10 -152.5 67t-41.5 136q-29 -48 -60 -84t-72.5 -69t-96 -51t-117.5 -18 q-79 0 -131.5 37.5t-73.5 100.5l-13 -4l-43 -461z" />
<glyph unicode="&#xb6;" horiz-adv-x="1271" d="M221.5 818.5q0.5 68.5 11.5 142.5q23 128 92 241.5t176 185.5t226 72h606l-18 -106h-137l-273 -1538h-121l271 1538h-244l-272 -1538h-119l115 655q-81 6 -142 35.5t-96 75.5t-55.5 107t-20 129.5z" />
<glyph unicode="&#xb8;" horiz-adv-x="669" d="M31 -393l18 100q97 -39 176 -39q146 0 146 92q0 58 -148 62l-47 2l78 225h94l-49 -135q223 -4 223 -133q0 -90 -82 -151.5t-217 -61.5q-102 0 -192 39z" />
<glyph unicode="&#xb9;" horiz-adv-x="649" d="M176 778l19 105h174l102 573l-168 -20l8 100l264 57h70l-125 -710h160l-18 -105h-486z" />
<glyph unicode="&#xba;" horiz-adv-x="831" d="M170 524l25 119h522l-23 -119h-524zM223 967q0 21 3.5 47.5t7.5 48t12 64t14 73.5q23 135 115 211t227 76q113 0 180.5 -52.5t67.5 -160.5q0 -17 -1.5 -34.5t-5.5 -43t-7 -42t-10 -56.5t-11 -60q-24 -133 -116.5 -206.5t-227.5 -73.5q-113 0 -180.5 51t-67.5 158z M365 979q0 -117 127 -117q151 0 182 176q35 191 35 224q0 116 -123 116q-81 0 -126.5 -47t-58.5 -127q-3 -15 -13 -67t-16.5 -92.5t-6.5 -65.5z" />
<glyph unicode="&#xbb;" horiz-adv-x="1132" d="M59 246l332 305l-217 315l105 80l333 -397l-473 -397zM516 246l332 305l-217 315l104 80l334 -397l-473 -397z" />
<glyph unicode="&#xbc;" horiz-adv-x="1724" d="M145 645l19 105h174l102 573l-168 -20l9 100l264 57h69l-125 -710h160l-18 -105h-486zM360 -4l1002 1464h131l-1001 -1464h-132zM1001 199l19 110l407 510h166l-415 -504h198l23 136l160 94l-39 -230h98l-21 -116h-98l-37 -199h-143l37 199h-355z" />
<glyph unicode="&#xbd;" horiz-adv-x="1724" d="M145 645l19 105h174l102 573l-168 -20l9 100l264 57h69l-125 -710h160l-18 -105h-486zM360 -4l1002 1464h131l-1001 -1464h-132zM1047 0l16 98l319 297q40 38 64 66t47 75t23 93q0 39 -26 63.5t-77 24.5q-52 0 -88.5 -30t-48.5 -83q0 -2 -2 -14.5t-2 -14.5h-139 q0 2 3 19.5t3 19.5q20 106 104 163t203 57q109 0 165 -50t56 -133q0 -25 -5 -51t-10.5 -46.5t-21 -46.5t-23.5 -42t-31.5 -43t-32.5 -38.5t-38 -40t-37 -36t-41 -38.5t-38 -36l-123 -112h323l-20 -121h-522z" />
<glyph unicode="&#xbe;" horiz-adv-x="1724" d="M147 788q0 18 7 43q0 1 3 14t3 15h141l-2 -16q-4 -12 -4 -29q0 -40 31.5 -60t85.5 -20q62 0 108.5 44.5t46.5 115.5q0 30 -13 51t-34 31t-39.5 14t-36.5 4h-75l18 109h74q66 0 109.5 37t43.5 114q0 44 -29 67.5t-71 23.5q-56 0 -93 -27.5t-46 -77.5l-2 -18h-142l5 30 q19 96 101 154.5t204 58.5q111 0 167 -50.5t56 -127.5q0 -78 -46 -143t-120 -86v-4q55 -16 90 -56.5t35 -99.5q0 -56 -21.5 -103.5t-56 -79t-79.5 -53.5t-91 -32t-92 -10q-116 0 -176 45t-60 122zM381 -4l1001 1464h131l-1001 -1464h-131zM1001 199l19 110l407 510h166 l-415 -504h198l23 136l160 94l-39 -230h98l-21 -116h-98l-37 -199h-143l37 199h-355z" />
<glyph unicode="&#xbf;" horiz-adv-x="1083" d="M63 -78q0 65 16.5 124t39.5 101.5t61.5 86t69.5 70.5t76 63q19 15 60.5 46t61 47t45.5 42.5t39.5 54.5t18.5 61l16 93h170l-16 -95q-19 -86 -63.5 -150.5t-118.5 -127.5q-19 -15 -59 -46t-65.5 -51.5t-59.5 -54t-54 -64t-34.5 -72t-14.5 -85.5q0 -86 54 -136t149 -50 q42 0 83 11t84 36t76.5 73.5t49.5 114.5q1 3 10 47h170l-13 -71q-23 -123 -101 -206.5t-179 -119t-221 -35.5q-167 0 -259 76.5t-92 216.5zM580 848l45 264h198l-47 -264h-196z" />
<glyph unicode="&#xc0;" horiz-adv-x="1355" d="M-10 0l801 1462h184l280 -1462h-202l-68 385h-586l-206 -385h-203zM481 553h477l-114 670h-6zM539 1946h215l188 -338h-147z" />
<glyph unicode="&#xc1;" horiz-adv-x="1355" d="M-10 0l801 1462h184l280 -1462h-202l-68 385h-586l-206 -385h-203zM481 553h477l-114 670h-6zM819 1610l238 338h217l-305 -338h-150z" />
<glyph unicode="&#xc2;" horiz-adv-x="1355" d="M-10 0l801 1462h184l280 -1462h-202l-68 385h-586l-206 -385h-203zM481 553h477l-114 670h-6zM596 1597l258 338h176l125 -338h-156l-77 222l-164 -222h-162z" />
<glyph unicode="&#xc3;" horiz-adv-x="1355" d="M-10 0l801 1462h184l280 -1462h-202l-68 385h-586l-206 -385h-203zM481 553h477l-114 670h-6zM514 1597q37 102 97 163t143 61q58 0 162.5 -35t164.5 -35q38 0 62.5 23t50.5 73l94 -22q-78 -223 -235 -223q-59 0 -166 34.5t-162 34.5q-36 0 -58 -19.5t-53 -74.5 q-92 18 -100 20z" />
<glyph unicode="&#xc4;" horiz-adv-x="1355" d="M-10 0l801 1462h184l280 -1462h-202l-68 385h-586l-206 -385h-203zM481 553h477l-114 670h-6zM606 1608l41 231h182l-41 -231h-182zM1006 1608l41 231h182l-41 -231h-182z" />
<glyph unicode="&#xc5;" horiz-adv-x="1355" d="M-10 0l801 1462h184l280 -1462h-202l-68 385h-586l-206 -385h-203zM481 553h477l-114 670h-6zM733 1706q0 93 70.5 162t163.5 69q77 0 126.5 -38.5t49.5 -110.5q0 -94 -71.5 -163t-166.5 -69q-75 0 -123.5 40.5t-48.5 109.5zM831 1724q0 -39 25.5 -62.5t61.5 -23.5 q49 0 87.5 37.5t38.5 93.5q0 40 -25 62t-67 22q-50 0 -85.5 -37t-35.5 -92z" />
<glyph unicode="&#xc6;" horiz-adv-x="2002" d="M-33 0l1065 1460h1049l-27 -160h-733l-82 -469h578l-29 -159h-578l-90 -512h731l-26 -160h-932l70 397l-498 -2l-291 -395h-207zM567 549h422l135 764z" />
<glyph unicode="&#xc7;" horiz-adv-x="1325" d="M119 379q0 50 8 94q47 285 84 490q45 240 226 382t429 142q129 0 232 -41t166 -126t63 -202q0 -60 -18 -143h-187q11 65 11 94q0 115 -82 178.5t-217 63.5q-162 0 -279 -94t-145 -248q-61 -331 -86 -484q-1 -8 -4 -31t-3 -34q0 -128 91.5 -199t230.5 -71 q154 0 259.5 82.5t131.5 220.5q0 1 2 11t2 11h187l-9 -49q-39 -201 -198 -322t-379 -129l-23 -61q224 -4 224 -133q0 -90 -82 -151.5t-217 -61.5q-103 0 -193 39l18 100q97 -39 177 -39q145 0 145 92q0 58 -147 62l-48 2l54 156q-88 7 -164 35t-134.5 76t-92 122t-33.5 166z " />
<glyph unicode="&#xc8;" horiz-adv-x="1241" d="M96 0l256 1460h961l-29 -174h-764l-80 -448h654l-31 -174h-653l-86 -490h768l-31 -174h-965zM545 1946h215l188 -338h-147z" />
<glyph unicode="&#xc9;" horiz-adv-x="1241" d="M96 0l256 1460h961l-29 -174h-764l-80 -448h654l-31 -174h-653l-86 -490h768l-31 -174h-965zM762 1610l237 338h218l-306 -338h-149z" />
<glyph unicode="&#xca;" horiz-adv-x="1241" d="M96 0l256 1460h961l-29 -174h-764l-80 -448h654l-31 -174h-653l-86 -490h768l-31 -174h-965zM575 1604l259 338h176l125 -338h-156l-78 221l-164 -221h-162z" />
<glyph unicode="&#xcb;" horiz-adv-x="1241" d="M96 0l256 1460h961l-29 -174h-764l-80 -448h654l-31 -174h-653l-86 -490h768l-31 -174h-965zM575 1608l41 231h183l-41 -231h-183zM975 1608l41 231h182l-41 -231h-182z" />
<glyph unicode="&#xcc;" horiz-adv-x="516" d="M96 0l256 1460h199l-258 -1460h-197zM113 1946h215l188 -338h-147z" />
<glyph unicode="&#xcd;" horiz-adv-x="516" d="M96 0l256 1460h199l-258 -1460h-197zM389 1608l238 338h217l-305 -338h-150z" />
<glyph unicode="&#xce;" horiz-adv-x="516" d="M96 0l256 1460h199l-258 -1460h-197zM186 1604l258 338h177l124 -338h-155l-78 221l-164 -221h-162z" />
<glyph unicode="&#xcf;" horiz-adv-x="516" d="M96 0l256 1460h199l-258 -1460h-197zM174 1608l41 231h182l-41 -231h-182zM573 1608l41 231h183l-41 -231h-183z" />
<glyph unicode="&#xd0;" horiz-adv-x="1388" d="M82 682l24 139h152l113 639h551q202 0 331 -106t129 -297q0 -56 -8 -103q-8 -46 -41 -232.5t-41 -232.5q-41 -228 -212 -358.5t-412 -130.5h-553l118 682h-151zM342 174h346q163 0 272 85.5t134 227.5q60 324 84 474q8 46 8 69q0 121 -85.5 188.5t-223.5 67.5h-338 l-82 -465h385l-25 -139h-385z" />
<glyph unicode="&#xd1;" horiz-adv-x="1419" d="M96 0l258 1460h195l512 -1130h6l199 1130h188l-258 -1460h-190l-514 1135h-7l-200 -1135h-189zM561 1597q37 102 97 163t143 61q58 0 162.5 -35t164.5 -35q38 0 62.5 23t50.5 73l94 -22q-78 -223 -235 -223q-59 0 -166 34.5t-162 34.5q-36 0 -57 -19.5t-53 -74.5 q-96 18 -101 20z" />
<glyph unicode="&#xd2;" horiz-adv-x="1378" d="M137 375q0 51 8 92q9 55 42 244.5t42 244.5q28 155 124.5 277t236 188t297.5 66q101 0 188.5 -27t154.5 -78.5t105.5 -131.5t38.5 -179q0 -54 -8 -98q-9 -51 -41 -233.5t-41 -233.5q-28 -156 -124 -278t-235.5 -187.5t-297.5 -65.5q-98 0 -184.5 24.5t-155.5 71.5 t-109.5 125.5t-40.5 178.5zM338 416q0 -126 90.5 -196t228.5 -70q159 0 279 93.5t149 248.5q9 58 43.5 248t42.5 241q7 40 7 70q0 127 -89 193.5t-231 66.5q-165 0 -281.5 -92t-146.5 -256q0 -2 -37 -207.5t-49 -270.5q0 -5 -3 -30t-3 -39zM584 1948h215l188 -338h-147z" />
<glyph unicode="&#xd3;" horiz-adv-x="1378" d="M137 375q0 51 8 92q9 55 42 244.5t42 244.5q28 155 124.5 277t236 188t297.5 66q101 0 188.5 -27t154.5 -78.5t105.5 -131.5t38.5 -179q0 -54 -8 -98q-9 -51 -41 -233.5t-41 -233.5q-28 -156 -124 -278t-235.5 -187.5t-297.5 -65.5q-98 0 -184.5 24.5t-155.5 71.5 t-109.5 125.5t-40.5 178.5zM338 416q0 -126 90.5 -196t228.5 -70q159 0 279 93.5t149 248.5q9 58 43.5 248t42.5 241q7 40 7 70q0 127 -89 193.5t-231 66.5q-165 0 -281.5 -92t-146.5 -256q0 -2 -37 -207.5t-49 -270.5q0 -5 -3 -30t-3 -39zM829 1610l238 338h217l-305 -338 h-150z" />
<glyph unicode="&#xd4;" horiz-adv-x="1378" d="M137 375q0 51 8 92q9 55 42 244.5t42 244.5q28 155 124.5 277t236 188t297.5 66q101 0 188.5 -27t154.5 -78.5t105.5 -131.5t38.5 -179q0 -54 -8 -98q-9 -51 -41 -233.5t-41 -233.5q-28 -156 -124 -278t-235.5 -187.5t-297.5 -65.5q-98 0 -184.5 24.5t-155.5 71.5 t-109.5 125.5t-40.5 178.5zM338 416q0 -126 90.5 -196t228.5 -70q159 0 279 93.5t149 248.5q9 58 43.5 248t42.5 241q7 40 7 70q0 127 -89 193.5t-231 66.5q-165 0 -281.5 -92t-146.5 -256q0 -2 -37 -207.5t-49 -270.5q0 -5 -3 -30t-3 -39zM627 1606l258 338h176l125 -338 h-156l-78 221l-164 -221h-161z" />
<glyph unicode="&#xd5;" horiz-adv-x="1378" d="M137 375q0 51 8 92q9 55 42 244.5t42 244.5q28 155 124.5 277t236 188t297.5 66q101 0 188.5 -27t154.5 -78.5t105.5 -131.5t38.5 -179q0 -54 -8 -98q-9 -51 -41 -233.5t-41 -233.5q-28 -156 -124 -278t-235.5 -187.5t-297.5 -65.5q-98 0 -184.5 24.5t-155.5 71.5 t-109.5 125.5t-40.5 178.5zM338 416q0 -126 90.5 -196t228.5 -70q159 0 279 93.5t149 248.5q9 58 43.5 248t42.5 241q7 40 7 70q0 127 -89 193.5t-231 66.5q-165 0 -281.5 -92t-146.5 -256q0 -2 -37 -207.5t-49 -270.5q0 -5 -3 -30t-3 -39zM522 1597q37 102 97 163t143 61 q58 0 163 -35t165 -35q38 0 62 23t50 73l94 -22q-78 -223 -235 -223q-59 0 -166 34.5t-162 34.5q-36 0 -57 -19.5t-53 -74.5q-96 18 -101 20z" />
<glyph unicode="&#xd6;" horiz-adv-x="1378" d="M137 375q0 51 8 92q9 55 42 244.5t42 244.5q28 155 124.5 277t236 188t297.5 66q101 0 188.5 -27t154.5 -78.5t105.5 -131.5t38.5 -179q0 -54 -8 -98q-9 -51 -41 -233.5t-41 -233.5q-28 -156 -124 -278t-235.5 -187.5t-297.5 -65.5q-98 0 -184.5 24.5t-155.5 71.5 t-109.5 125.5t-40.5 178.5zM338 416q0 -126 90.5 -196t228.5 -70q159 0 279 93.5t149 248.5q9 58 43.5 248t42.5 241q7 40 7 70q0 127 -89 193.5t-231 66.5q-165 0 -281.5 -92t-146.5 -256q0 -2 -37 -207.5t-49 -270.5q0 -5 -3 -30t-3 -39zM602 1608l41 231h182l-41 -231 h-182zM1001 1608l41 231h183l-41 -231h-183z" />
<glyph unicode="&#xd7;" horiz-adv-x="1146" d="M111 295l424 358l-304 373l111 92l301 -373l416 359l86 -103l-416 -356l313 -364l-112 -95l-314 367l-421 -360z" />
<glyph unicode="&#xd8;" horiz-adv-x="1378" d="M137 375q0 51 8 92q9 55 42 244.5t42 244.5q28 155 124.5 277t236 188t297.5 66q165 0 289 -70l94 137l96 -63l-98 -145q106 -109 106 -275q0 -54 -8 -98q-9 -51 -41 -233.5t-41 -233.5q-28 -156 -124 -278t-235.5 -187.5t-297.5 -65.5q-140 0 -258 50l-99 -146l-94 64 l94 139q-133 107 -133 293zM338 416q0 -95 51 -158l680 999q-85 54 -211 54q-165 0 -281.5 -92t-146.5 -256q0 -2 -37 -207.5t-49 -270.5q0 -5 -3 -30t-3 -39zM479 186q73 -36 178 -36q159 0 279 93.5t149 248.5q9 58 43.5 248t42.5 241q7 40 7 70q0 67 -29 120z" />
<glyph unicode="&#xd9;" horiz-adv-x="1392" d="M162 371q0 62 8 114l174 975h197l-168 -944q-8 -66 -8 -94q0 -135 80.5 -201.5t213.5 -66.5q175 0 281.5 93.5t136.5 264.5l168 948h197q-22 -122 -89 -500.5t-81 -459.5q-43 -245 -215.5 -385t-427.5 -140q-75 0 -142 13t-127.5 43.5t-103.5 75t-68.5 112.5t-25.5 152z M602 1948h215l189 -338h-148z" />
<glyph unicode="&#xda;" horiz-adv-x="1392" d="M162 371q0 62 8 114l174 975h197l-168 -944q-8 -66 -8 -94q0 -135 80.5 -201.5t213.5 -66.5q175 0 281.5 93.5t136.5 264.5l168 948h197q-22 -122 -89 -500.5t-81 -459.5q-43 -245 -215.5 -385t-427.5 -140q-75 0 -142 13t-127.5 43.5t-103.5 75t-68.5 112.5t-25.5 152z M842 1610l237 338h217l-305 -338h-149z" />
<glyph unicode="&#xdb;" horiz-adv-x="1392" d="M162 371q0 62 8 114l174 975h197l-168 -944q-8 -66 -8 -94q0 -135 80.5 -201.5t213.5 -66.5q175 0 281.5 93.5t136.5 264.5l168 948h197q-22 -122 -89 -500.5t-81 -459.5q-43 -245 -215.5 -385t-427.5 -140q-75 0 -142 13t-127.5 43.5t-103.5 75t-68.5 112.5t-25.5 152z M637 1606l258 338h176l125 -338h-156l-77 221l-164 -221h-162z" />
<glyph unicode="&#xdc;" horiz-adv-x="1392" d="M162 371q0 62 8 114l174 975h197l-168 -944q-8 -66 -8 -94q0 -135 80.5 -201.5t213.5 -66.5q175 0 281.5 93.5t136.5 264.5l168 948h197q-22 -122 -89 -500.5t-81 -459.5q-43 -245 -215.5 -385t-427.5 -140q-75 0 -142 13t-127.5 43.5t-103.5 75t-68.5 112.5t-25.5 152z M627 1608l41 231h182l-41 -231h-182zM1026 1608l41 231h182l-41 -231h-182z" />
<glyph unicode="&#xdd;" horiz-adv-x="1210" d="M215 1460h209l244 -669l477 669h217l-631 -864l-104 -596h-191l105 600zM731 1610l238 338h217l-305 -338h-150z" />
<glyph unicode="&#xde;" horiz-adv-x="1251" d="M96 0l256 1460h197l-43 -243h342q183 0 296 -92.5t113 -260.5q0 -163 -79.5 -287.5t-211.5 -189.5t-294 -65h-322l-57 -322h-197zM379 483h287q112 0 199.5 38.5t140.5 118.5t53 191q0 110 -76.5 166t-196.5 56h-307z" />
<glyph unicode="&#xdf;" horiz-adv-x="1329" d="M84 -385l225 1276h-176l27 141h174q19 117 66 205t115.5 142.5t153.5 81t187 26.5q81 0 152.5 -19.5t129 -57t91 -100t33.5 -141.5q0 -137 -83 -249t-227 -162v-10q131 -33 204 -120.5t73 -205.5q0 -196 -144 -320.5t-350 -124.5q-153 0 -239 37l30 156q114 -29 193 -29 q134 0 225.5 76t91.5 205q0 64 -29.5 111.5t-79.5 73.5t-105 38.5t-115 13.5l24 134h53q147 38 217 131.5t70 220.5q0 106 -68.5 155.5t-177.5 49.5q-127 0 -206.5 -77.5t-102.5 -219.5l-252 -1420z" />
<glyph unicode="&#xe0;" d="M82 272q0 38 6 82q5 29 26.5 148.5t26.5 148.5q33 189 157 296.5t302 107.5q59 0 113.5 -16.5t101 -54.5t64.5 -93h8l28 143h177l-185 -1034h-176l29 158h-6q-60 -84 -159.5 -133.5t-186.5 -49.5q-148 0 -237 79t-89 218zM270 313q0 -86 57.5 -134t153.5 -48 q110 0 203.5 76.5t114.5 198.5l41 233q4 36 4 51q0 100 -68.5 156.5t-167.5 56.5q-105 0 -182.5 -64t-97.5 -177l-54 -302q-4 -32 -4 -47zM311 1538h215l189 -338h-148z" />
<glyph unicode="&#xe1;" d="M82 272q0 38 6 82q5 29 26.5 148.5t26.5 148.5q33 189 157 296.5t302 107.5q59 0 113.5 -16.5t101 -54.5t64.5 -93h8l28 143h177l-185 -1034h-176l29 158h-6q-60 -84 -159.5 -133.5t-186.5 -49.5q-148 0 -237 79t-89 218zM270 313q0 -86 57.5 -134t153.5 -48 q110 0 203.5 76.5t114.5 198.5l41 233q4 36 4 51q0 100 -68.5 156.5t-167.5 56.5q-105 0 -182.5 -64t-97.5 -177l-54 -302q-4 -32 -4 -47zM549 1200l237 338h218l-306 -338h-149z" />
<glyph unicode="&#xe2;" d="M82 272q0 38 6 82q5 29 26.5 148.5t26.5 148.5q33 189 157 296.5t302 107.5q59 0 113.5 -16.5t101 -54.5t64.5 -93h8l28 143h177l-185 -1034h-176l29 158h-6q-60 -84 -159.5 -133.5t-186.5 -49.5q-148 0 -237 79t-89 218zM270 313q0 -86 57.5 -134t153.5 -48 q110 0 203.5 76.5t114.5 198.5l41 233q4 36 4 51q0 100 -68.5 156.5t-167.5 56.5q-105 0 -182.5 -64t-97.5 -177l-54 -302q-4 -32 -4 -47zM352 1196l258 338h176l125 -338h-155l-78 221l-164 -221h-162z" />
<glyph unicode="&#xe3;" d="M82 272q0 38 6 82q5 29 26.5 148.5t26.5 148.5q33 189 157 296.5t302 107.5q59 0 113.5 -16.5t101 -54.5t64.5 -93h8l28 143h177l-185 -1034h-176l29 158h-6q-60 -84 -159.5 -133.5t-186.5 -49.5q-148 0 -237 79t-89 218zM270 313q0 -86 57.5 -134t153.5 -48 q110 0 203.5 76.5t114.5 198.5l41 233q4 36 4 51q0 100 -68.5 156.5t-167.5 56.5q-105 0 -182.5 -64t-97.5 -177l-54 -302q-4 -32 -4 -47zM293 1208q37 102 96.5 163t142.5 61q58 0 163 -35t165 -35q38 0 62.5 23t50.5 73l94 -22q-78 -224 -236 -224q-59 0 -165.5 35 t-161.5 35q-36 0 -58 -19.5t-53 -74.5q-92 18 -100 20z" />
<glyph unicode="&#xe4;" d="M82 272q0 38 6 82q5 29 26.5 148.5t26.5 148.5q33 189 157 296.5t302 107.5q59 0 113.5 -16.5t101 -54.5t64.5 -93h8l28 143h177l-185 -1034h-176l29 158h-6q-60 -84 -159.5 -133.5t-186.5 -49.5q-148 0 -237 79t-89 218zM270 313q0 -86 57.5 -134t153.5 -48 q110 0 203.5 76.5t114.5 198.5l41 233q4 36 4 51q0 100 -68.5 156.5t-167.5 56.5q-105 0 -182.5 -64t-97.5 -177l-54 -302q-4 -32 -4 -47zM379 1200l41 232h182l-41 -232h-182zM778 1200l41 232h182l-40 -232h-183z" />
<glyph unicode="&#xe5;" d="M82 272q0 38 6 82q5 29 26.5 148.5t26.5 148.5q33 189 157 296.5t302 107.5q59 0 113.5 -16.5t101 -54.5t64.5 -93h8l28 143h177l-185 -1034h-176l29 158h-6q-60 -84 -159.5 -133.5t-186.5 -49.5q-148 0 -237 79t-89 218zM270 313q0 -86 57.5 -134t153.5 -48 q110 0 203.5 76.5t114.5 198.5l41 233q4 36 4 51q0 100 -68.5 156.5t-167.5 56.5q-105 0 -182.5 -64t-97.5 -177l-54 -302q-4 -32 -4 -47zM471 1315q0 93 70.5 162t163.5 69q77 0 126.5 -38.5t49.5 -110.5q0 -94 -71.5 -163t-166.5 -69q-75 0 -123.5 40.5t-48.5 109.5z M569 1333q0 -39 25 -62.5t61 -23.5q49 0 88 37.5t39 93.5q0 40 -25 62t-67 22q-50 0 -85.5 -37t-35.5 -92z" />
<glyph unicode="&#xe6;" horiz-adv-x="1732" d="M51 223q0 91 40.5 164.5t106 117.5t141.5 67.5t153 23.5h290q27 162 27 180q0 137 -201 137q-43 0 -82.5 -8.5t-78 -27t-65 -54.5t-32.5 -86h-166q15 87 59.5 151.5t108.5 100t134.5 52t150.5 16.5q103 0 194 -37t134 -111q70 69 163 107.5t197 38.5q159 0 258.5 -81 t99.5 -235q0 -75 -36 -266h-684q-2 -14 -9 -45t-10 -54.5t-2 -45.5q0 -95 75.5 -148t184.5 -53q165 0 344 106l62 -118q-71 -67 -191 -103.5t-250 -36.5q-88 0 -164.5 21t-137 68.5t-87.5 115.5q-72 -107 -188.5 -156t-239.5 -49q-128 0 -213.5 63t-85.5 185zM231 262 q0 -74 57 -108.5t140 -34.5q269 0 317 260l13 84h-260q-49 0 -92 -9t-84.5 -30t-66 -62.5t-24.5 -99.5zM987 602h502q14 77 14 109q0 91 -53 140.5t-154 49.5q-114 0 -192 -58t-103 -159q0 -3 -4 -22.5t-7 -37t-3 -22.5z" />
<glyph unicode="&#xe7;" horiz-adv-x="1001" d="M76 297q0 41 6.5 92.5t13 85.5t27.5 139q40 203 174.5 322t335.5 119q161 0 260.5 -77.5t99.5 -219.5q0 -27 -12 -101h-172q8 39 8 68q0 78 -56 127t-155 49q-123 0 -194.5 -72t-96.5 -194q-45 -232 -45 -309q0 -94 62.5 -143.5t167.5 -49.5q154 0 329 119l62 -135 q-165 -130 -381 -140l-23 -63q224 -4 224 -133q0 -90 -82 -151.5t-217 -61.5q-103 0 -193 39l19 100q97 -39 176 -39q145 0 145 92q0 58 -147 62l-47 2l53 153q-151 13 -246.5 95t-95.5 225z" />
<glyph unicode="&#xe8;" horiz-adv-x="1060" d="M78 303q0 34 5.5 73t19 115t20.5 117q38 204 182.5 325.5t345.5 121.5q161 0 260 -81t99 -235q0 -24 -3.5 -58t-7.5 -59.5t-12 -74.5t-12 -74h-686q-21 -123 -21 -145q0 -96 67.5 -148.5t174.5 -52.5q165 0 344 106l59 -118q-72 -67 -190.5 -103.5t-249.5 -36.5 q-82 0 -152 19.5t-125 58t-86.5 103t-31.5 147.5zM313 602h504q12 82 12 109q0 91 -52.5 140.5t-151.5 49.5q-118 0 -196 -67.5t-103 -171.5q-13 -39 -13 -60zM322 1538h215l188 -338h-147z" />
<glyph unicode="&#xe9;" horiz-adv-x="1060" d="M78 303q0 34 5.5 73t19 115t20.5 117q38 204 182.5 325.5t345.5 121.5q161 0 260 -81t99 -235q0 -24 -3.5 -58t-7.5 -59.5t-12 -74.5t-12 -74h-686q-21 -123 -21 -145q0 -96 67.5 -148.5t174.5 -52.5q165 0 344 106l59 -118q-72 -67 -190.5 -103.5t-249.5 -36.5 q-82 0 -152 19.5t-125 58t-86.5 103t-31.5 147.5zM313 602h504q12 82 12 109q0 91 -52.5 140.5t-151.5 49.5q-118 0 -196 -67.5t-103 -171.5q-13 -39 -13 -60zM588 1200l237 338h217l-305 -338h-149z" />
<glyph unicode="&#xea;" horiz-adv-x="1060" d="M78 303q0 34 5.5 73t19 115t20.5 117q38 204 182.5 325.5t345.5 121.5q161 0 260 -81t99 -235q0 -24 -3.5 -58t-7.5 -59.5t-12 -74.5t-12 -74h-686q-21 -123 -21 -145q0 -96 67.5 -148.5t174.5 -52.5q165 0 344 106l59 -118q-72 -67 -190.5 -103.5t-249.5 -36.5 q-82 0 -152 19.5t-125 58t-86.5 103t-31.5 147.5zM313 602h504q12 82 12 109q0 91 -52.5 140.5t-151.5 49.5q-118 0 -196 -67.5t-103 -171.5q-13 -39 -13 -60zM381 1196l258 338h176l125 -338h-156l-77 221l-164 -221h-162z" />
<glyph unicode="&#xeb;" horiz-adv-x="1060" d="M78 303q0 34 5.5 73t19 115t20.5 117q38 204 182.5 325.5t345.5 121.5q161 0 260 -81t99 -235q0 -24 -3.5 -58t-7.5 -59.5t-12 -74.5t-12 -74h-686q-21 -123 -21 -145q0 -96 67.5 -148.5t174.5 -52.5q165 0 344 106l59 -118q-72 -67 -190.5 -103.5t-249.5 -36.5 q-82 0 -152 19.5t-125 58t-86.5 103t-31.5 147.5zM313 602h504q12 82 12 109q0 91 -52.5 140.5t-151.5 49.5q-118 0 -196 -67.5t-103 -171.5q-13 -39 -13 -60zM373 1200l41 232h182l-41 -232h-182zM772 1200l41 232h182l-41 -232h-182z" />
<glyph unicode="&#xec;" horiz-adv-x="468" d="M10 1538h215l189 -338h-148zM72 0l182 1034h180l-180 -1034h-182z" />
<glyph unicode="&#xed;" horiz-adv-x="468" d="M72 0l182 1034h180l-180 -1034h-182zM295 1200l237 338h218l-306 -338h-149z" />
<glyph unicode="&#xee;" horiz-adv-x="468" d="M72 0l182 1034h180l-180 -1034h-182zM74 1196l258 338h176l125 -338h-156l-78 221l-163 -221h-162z" />
<glyph unicode="&#xef;" horiz-adv-x="468" d="M72 0l182 1034h180l-180 -1034h-182zM82 1200l41 232h182l-41 -232h-182zM481 1200l41 232h183l-41 -232h-183z" />
<glyph unicode="&#xf0;" horiz-adv-x="1079" d="M80 289q0 51 8 92q5 30 22.5 131t20.5 119q36 194 175 308t321 114q60 0 104 -19l-80 191l-241 -64l-39 117l235 59l-61 133l174 46l61 -138l211 56l39 -117l-199 -51q9 -19 83 -197t83 -197q25 -61 25 -137q0 -63 -12 -137q-1 -14 -17.5 -104.5t-17.5 -94.5 q-35 -196 -174.5 -310t-339.5 -114q-170 0 -275.5 78t-105.5 236zM266 315q0 -92 59 -140t164 -48q124 0 200.5 71t98.5 195l46 254q6 75 6 76q0 90 -54 136t-155 46q-127 0 -208 -68t-106 -196q-2 -14 -22.5 -130.5t-22.5 -129.5q-6 -23 -6 -66z" />
<glyph unicode="&#xf1;" horiz-adv-x="1128" d="M72 0q8 48 91 517t91 517h176l-29 -160l7 -2q67 88 161.5 136.5t196.5 48.5q132 0 210.5 -74.5t78.5 -181.5q0 -11 -13 -105l-122 -696h-183l113 637q12 75 12 96q0 79 -48 120.5t-136 41.5q-122 0 -209 -85t-111 -216l-104 -594h-182zM324 1208q37 102 96.5 163 t142.5 61q58 0 163 -35t165 -35q38 0 62.5 23t50.5 73l94 -22q-78 -224 -236 -224q-59 0 -165.5 35t-161.5 35q-36 0 -58 -19.5t-53 -74.5q-92 18 -100 20z" />
<glyph unicode="&#xf2;" horiz-adv-x="1079" d="M78 293q0 22 8 84l45 256q33 190 179 306t337 116q168 0 274.5 -86t106.5 -242q0 -30 -8 -92l-41 -238q-35 -191 -179 -306.5t-335 -115.5q-169 0 -278 81t-109 237zM266 319q0 -92 60 -141t163 -49q122 0 202 67.5t102 188.5l45 266q6 30 6 60q0 91 -60 139.5t-163 48.5 q-123 0 -203 -69t-101 -185l-45 -266q-8 -40 -6 -60zM336 1538h215l188 -338h-147z" />
<glyph unicode="&#xf3;" horiz-adv-x="1079" d="M78 293q0 22 8 84l45 256q33 190 179 306t337 116q168 0 274.5 -86t106.5 -242q0 -30 -8 -92l-41 -238q-35 -191 -179 -306.5t-335 -115.5q-169 0 -278 81t-109 237zM266 319q0 -92 60 -141t163 -49q122 0 202 67.5t102 188.5l45 266q6 30 6 60q0 91 -60 139.5t-163 48.5 q-123 0 -203 -69t-101 -185l-45 -266q-8 -40 -6 -60zM575 1200l238 338h217l-305 -338h-150z" />
<glyph unicode="&#xf4;" horiz-adv-x="1079" d="M78 293q0 22 8 84l45 256q33 190 179 306t337 116q168 0 274.5 -86t106.5 -242q0 -30 -8 -92l-41 -238q-35 -191 -179 -306.5t-335 -115.5q-169 0 -278 81t-109 237zM266 319q0 -92 60 -141t163 -49q122 0 202 67.5t102 188.5l45 266q6 30 6 60q0 91 -60 139.5t-163 48.5 q-123 0 -203 -69t-101 -185l-45 -266q-8 -40 -6 -60zM391 1196l258 338h176l125 -338h-155l-78 221l-164 -221h-162z" />
<glyph unicode="&#xf5;" horiz-adv-x="1079" d="M78 293q0 22 8 84l45 256q33 190 179 306t337 116q168 0 274.5 -86t106.5 -242q0 -30 -8 -92l-41 -238q-35 -191 -179 -306.5t-335 -115.5q-169 0 -278 81t-109 237zM266 319q0 -92 60 -141t163 -49q122 0 202 67.5t102 188.5l45 266q6 30 6 60q0 91 -60 139.5t-163 48.5 q-123 0 -203 -69t-101 -185l-45 -266q-8 -40 -6 -60zM297 1208q37 102 97 163t143 61q58 0 162.5 -35t164.5 -35q38 0 62.5 23t50.5 73l94 -22q-78 -224 -235 -224q-59 0 -166 35t-162 35q-36 0 -58 -19.5t-53 -74.5q-92 18 -100 20z" />
<glyph unicode="&#xf6;" horiz-adv-x="1079" d="M78 293q0 22 8 84l45 256q33 190 179 306t337 116q168 0 274.5 -86t106.5 -242q0 -30 -8 -92l-41 -238q-35 -191 -179 -306.5t-335 -115.5q-169 0 -278 81t-109 237zM266 319q0 -92 60 -141t163 -49q122 0 202 67.5t102 188.5l45 266q6 30 6 60q0 91 -60 139.5t-163 48.5 q-123 0 -203 -69t-101 -185l-45 -266q-8 -40 -6 -60zM387 1200l41 232h182l-41 -232h-182zM786 1200l41 232h183l-41 -232h-183z" />
<glyph unicode="&#xf7;" horiz-adv-x="1146" d="M115 586l22 127h991l-22 -127h-991zM438 160l39 229h195l-39 -229h-195zM567 899l41 229h195l-41 -229h-195z" />
<glyph unicode="&#xf8;" horiz-adv-x="1079" d="M78 293q0 22 8 84l45 256q33 190 179 306t337 116q83 0 160 -25l67 119l91 -47l-68 -117q131 -87 131 -258q0 -30 -8 -92l-41 -238q-35 -191 -179 -306.5t-335 -115.5q-65 0 -135 17l-72 -127l-92 47l65 115q-153 80 -153 266zM266 319q0 -87 53 -137l402 701 q-46 16 -100 16q-123 0 -203 -69t-101 -185l-45 -266q-8 -40 -6 -60zM414 137q31 -8 75 -8q122 0 202 67.5t102 188.5l45 266q6 30 6 60q0 67 -37 114z" />
<glyph unicode="&#xf9;" d="M111 248q0 30 8 92l123 694h182l-113 -637q-10 -62 -10 -96q0 -87 45.5 -125.5t136.5 -38.5q121 0 208.5 86.5t111.5 216.5l106 594h181q-8 -48 -91.5 -517t-91.5 -517h-176l29 160l-8 2q-67 -88 -160.5 -136.5t-194.5 -48.5q-137 0 -211.5 72t-74.5 199zM346 1538h215 l189 -338h-148z" />
<glyph unicode="&#xfa;" d="M111 248q0 30 8 92l123 694h182l-113 -637q-10 -62 -10 -96q0 -87 45.5 -125.5t136.5 -38.5q121 0 208.5 86.5t111.5 216.5l106 594h181q-8 -48 -91.5 -517t-91.5 -517h-176l29 160l-8 2q-67 -88 -160.5 -136.5t-194.5 -48.5q-137 0 -211.5 72t-74.5 199zM625 1200 l237 338h217l-305 -338h-149z" />
<glyph unicode="&#xfb;" d="M111 248q0 30 8 92l123 694h182l-113 -637q-10 -62 -10 -96q0 -87 45.5 -125.5t136.5 -38.5q121 0 208.5 86.5t111.5 216.5l106 594h181q-8 -48 -91.5 -517t-91.5 -517h-176l29 160l-8 2q-67 -88 -160.5 -136.5t-194.5 -48.5q-137 0 -211.5 72t-74.5 199zM418 1196 l258 338h176l125 -338h-156l-78 221l-163 -221h-162z" />
<glyph unicode="&#xfc;" d="M111 248q0 30 8 92l123 694h182l-113 -637q-10 -62 -10 -96q0 -87 45.5 -125.5t136.5 -38.5q121 0 208.5 86.5t111.5 216.5l106 594h181q-8 -48 -91.5 -517t-91.5 -517h-176l29 160l-8 2q-67 -88 -160.5 -136.5t-194.5 -48.5q-137 0 -211.5 72t-74.5 199zM422 1200 l41 232h182l-41 -232h-182zM821 1200l41 232h182l-40 -232h-183z" />
<glyph unicode="&#xfd;" horiz-adv-x="1005" d="M-76 -397l29 157q64 -12 121 -12q55 0 104 34t78 87l82 156l-209 1009h195l147 -794h4l397 794h197l-655 -1216q-68 -125 -159.5 -177.5t-207.5 -52.5q-44 0 -123 15zM522 1200l238 338h217l-305 -338h-150z" />
<glyph unicode="&#xfe;" horiz-adv-x="1124" d="M-2 -399l332 1859h182l-102 -583h6q61 89 151.5 133.5t190.5 44.5q142 0 232.5 -76.5t90.5 -206.5q0 -34 -8 -70q-26 -166 -59 -344q-33 -181 -164 -282t-301 -101q-86 0 -160.5 45t-99.5 121h-8l-99 -540h-184zM317 334q0 -96 69.5 -151.5t166.5 -55.5q112 0 185 65 t93 181q52 276 56 307q4 32 4 49q0 86 -59 129t-158 43q-110 0 -199.5 -76t-112.5 -198l-38 -238q-7 -31 -7 -55z" />
<glyph unicode="&#xff;" horiz-adv-x="1005" d="M-76 -397l29 157q64 -12 121 -12q55 0 104 34t78 87l82 156l-209 1009h195l147 -794h4l397 794h197l-655 -1216q-68 -125 -159.5 -177.5t-207.5 -52.5q-44 0 -123 15zM330 1200l41 232h182l-41 -232h-182zM729 1200l41 232h182l-41 -232h-182z" />
<glyph unicode="&#x152;" horiz-adv-x="2138" d="M137 369q0 57 8 98q19 117 86 489q41 235 221.5 383t421.5 148q113 0 210 -35.5t155 -103.5l21 112h958l-31 -174h-764l-80 -448h654l-29 -174h-655l-86 -490h768l-29 -174h-965l23 125q-78 -71 -186.5 -110.5t-223.5 -39.5q-78 0 -148 14.5t-130.5 46t-104.5 77t-69 111 t-25 145.5zM338 416q0 -126 90.5 -196t228.5 -70q159 0 279 93.5t149 248.5q40 219 89 489q4 46 4 66q0 127 -89.5 195.5t-230.5 68.5q-165 0 -281.5 -92t-146.5 -256q-61 -337 -84 -478q-8 -50 -8 -69z" />
<glyph unicode="&#x153;" horiz-adv-x="1771" d="M80 293q0 25 2 49.5t8 60.5t10 58t15.5 81.5t17.5 90.5q39 194 182 308t334 114q114 0 199 -43.5t127 -128.5q72 83 172 127.5t213 44.5q160 0 261 -82.5t101 -235.5q0 -24 -4 -57.5t-8.5 -59t-13.5 -74t-13 -73.5h-686q-4 -29 -10 -64t-8 -51t-2 -30q0 -96 67.5 -148.5 t174.5 -52.5q165 0 344 106l61 -118q-71 -67 -190.5 -103.5t-249.5 -36.5q-116 0 -206.5 40.5t-135.5 125.5q-69 -79 -167 -122.5t-208 -43.5q-169 0 -278 81t-109 237zM266 319q0 -92 60.5 -141t162.5 -49q125 0 204.5 69t101.5 193l45 260q6 30 6 60q0 91 -60 139.5 t-163 48.5q-124 0 -203.5 -69t-100.5 -185l-47 -266q-6 -30 -6 -60zM1022 602h504q14 77 14 109q0 91 -53.5 140.5t-153.5 49.5q-128 0 -209 -82t-102 -217z" />
<glyph unicode="&#x178;" horiz-adv-x="1210" d="M215 1460h209l244 -669l477 669h217l-631 -864l-104 -596h-191l105 600zM512 1583l41 232h182l-41 -232h-182zM911 1583l41 232h183l-41 -232h-183z" />
<glyph unicode="&#x2c6;" horiz-adv-x="796" d="M242 1196l258 338h176l125 -338h-156l-78 221l-164 -221h-161z" />
<glyph unicode="&#x2dc;" horiz-adv-x="940" d="M231 1208q37 102 97 163t143 61q58 0 163 -35t165 -35q38 0 62 23t50 73l95 -22q-78 -224 -236 -224q-59 0 -166 35t-162 35q-36 0 -57 -19.5t-53 -74.5q-96 18 -101 20z" />
<glyph unicode="&#x2000;" horiz-adv-x="974" />
<glyph unicode="&#x2001;" horiz-adv-x="1948" />
<glyph unicode="&#x2002;" horiz-adv-x="974" />
<glyph unicode="&#x2003;" horiz-adv-x="1948" />
<glyph unicode="&#x2004;" horiz-adv-x="649" />
<glyph unicode="&#x2005;" horiz-adv-x="487" />
<glyph unicode="&#x2006;" horiz-adv-x="324" />
<glyph unicode="&#x2007;" horiz-adv-x="324" />
<glyph unicode="&#x2008;" horiz-adv-x="243" />
<glyph unicode="&#x2009;" horiz-adv-x="389" />
<glyph unicode="&#x200a;" horiz-adv-x="108" />
<glyph unicode="&#x2010;" horiz-adv-x="735" d="M98 520l31 162h555l-29 -162h-557z" />
<glyph unicode="&#x2011;" horiz-adv-x="735" d="M98 520l31 162h555l-29 -162h-557z" />
<glyph unicode="&#x2012;" horiz-adv-x="735" d="M98 520l31 162h555l-29 -162h-557z" />
<glyph unicode="&#x2013;" horiz-adv-x="974" d="M14 547l21 135h975l-23 -135h-973z" />
<glyph unicode="&#x2014;" horiz-adv-x="1589" d="M18 547l23 135h1589l-24 -135h-1588z" />
<glyph unicode="&#x2018;" horiz-adv-x="493" d="M227 958l43 252l131 260h99l-97 -256h66l-45 -256h-197z" />
<glyph unicode="&#x2019;" horiz-adv-x="456" d="M203 956l96 256h-63l43 256h196l-43 -251l-131 -261h-98z" />
<glyph unicode="&#x201a;" horiz-adv-x="481" d="M61 -252l97 256h-66l45 258h197l-45 -252l-131 -262h-97z" />
<glyph unicode="&#x201c;" horiz-adv-x="831" d="M236 958l45 252l131 260h96l-96 -256h65l-45 -256h-196zM573 958l45 252l132 260h96l-96 -256h65l-45 -256h-197z" />
<glyph unicode="&#x201d;" horiz-adv-x="831" d="M242 956l96 256h-66l43 256h199l-45 -251l-131 -261h-96zM580 956l96 256h-66l45 256h197l-45 -251l-131 -261h-96z" />
<glyph unicode="&#x201e;" horiz-adv-x="829" d="M61 -252l97 256h-66l45 258h197l-45 -252l-131 -262h-97zM406 -252l96 256h-66l45 258h197l-45 -252l-131 -262h-96z" />
<glyph unicode="&#x2022;" horiz-adv-x="802" d="M246 707q0 107 82 186.5t188 79.5q83 0 136 -53.5t53 -133.5q0 -104 -84 -185t-187 -81q-84 0 -136 53t-52 134z" />
<glyph unicode="&#x2026;" horiz-adv-x="1460" d="M129 0l47 262h197l-47 -262h-197zM598 0l49 262h197l-47 -262h-199zM1069 0l47 262h199l-49 -262h-197z" />
<glyph unicode="&#x202f;" horiz-adv-x="389" />
<glyph unicode="&#x2039;" horiz-adv-x="675" d="M119 547l473 399l76 -86l-328 -315l213 -318l-100 -75z" />
<glyph unicode="&#x203a;" horiz-adv-x="675" d="M59 246l332 305l-217 315l105 80l333 -397l-473 -397z" />
<glyph unicode="&#x205f;" horiz-adv-x="487" />
<glyph unicode="&#x20ac;" horiz-adv-x="1456" d="M115 508l20 117h193l34 211h-194l22 114h195q50 255 206.5 396t399.5 141q128 0 230.5 -41.5t165.5 -126.5t63 -201q0 -44 -18 -143h-189q12 56 12 94q0 114 -83 178t-218 64q-156 0 -249.5 -96.5t-124.5 -264.5h479l-23 -114h-477l-35 -211h480l-21 -117h-479 q-12 -73 -12 -102q0 -125 72 -190.5t204 -65.5q158 0 263.5 87.5t125.5 237.5h186q-5 -47 -16 -76q-55 -201 -214 -312.5t-376 -111.5q-202 0 -323 99t-121 293q0 70 14 141h-192z" />
<glyph unicode="&#x2122;" horiz-adv-x="1339" d="M246 1368l16 96h475l-16 -96h-182l-95 -537h-108l94 537h-184zM709 831l112 633h131l90 -323l205 323h129l-110 -633h-99l80 465l-196 -317h-74l-88 315l-80 -463h-100z" />
<glyph unicode="&#xe000;" horiz-adv-x="1034" d="M0 0v1034h1034v-1034h-1034z" />
</font>
</defs>
</svg>
